<svg xmlns="http://www.w3.org/2000/svg" width="245.939" height="197.542" viewBox="0 0 245.939 197.542">
  <g id="info_2" transform="translate(-7224.628 -1137.371)">
    <path id="Path_263" data-name="Path 263" d="M8428.06,1295.969l-2.323-4.918,4.333-12,8.174-.864s-3.275,8.673,3,13.361S8428.06,1295.969,8428.06,1295.969Z" transform="translate(-992.054 -116.308)" fill="#863e32"/>
    <g id="Group_28" data-name="Group 28" transform="translate(7390.857 1201.862)">
      <path id="Path_264" data-name="Path 264" d="M8230.291,1507.9l-48.64,1.429-1.964,3.377s27.162,17.431,55.765,4.872A79.422,79.422,0,0,1,8230.291,1507.9Z" transform="translate(-8179.688 -1507.897)" fill="#393e59"/>
    </g>
    <path id="Path_265" data-name="Path 265" d="M8212.955,1437.313s35.373-12.253,43.83-35.886c6.806-19.017,4.115-24.695.558-34.342l-9.429-2.582-6.6-.9c-22.949,9.131-23.788,16.627-24.732,22.334-1.437,8.675-5.857,20.37-16.752,22.567C8198.212,1408.833,8212.955,1437.313,8212.955,1437.313Z" transform="translate(-805.364 -186.859)" fill="#393e59"/>
    <path id="Path_266" data-name="Path 266" d="M8405.832,1457.24c.043-1.485,5.572,25,10.884,34.1,0,0-8.822-9.318-12.911-19.2a12.967,12.967,0,0,1-.024-9.778Z" transform="translate(-973.14 -264.146)" fill="#191c2c"/>
    <g id="Group_31" data-name="Group 31" transform="translate(7358.037 1300.567)">
      <path id="Path_267" data-name="Path 267" d="M8002.124,2079.493s13.815-5.761,23.115-4.231,15.722,10.3,39.507,14.977c7.068,1.389,5.126,5.33,5.126,5.33l.608,1.256-2.41.721-64.3-2.916s-11.037.556-12.315-2.7C7988.872,2085.367,8002.124,2079.493,8002.124,2079.493Z" transform="translate(-7991.122 -2075.003)" fill="#723229"/>
      <g id="Group_29" data-name="Group 29" transform="translate(16.95 0.005)">
        <path id="Path_268" data-name="Path 268" d="M8128.929,2075.285c9.314,1.445,15.979,9.146,39.507,14.977,10.305,2.555,3.122,6.486,4.613,6.411l-.377.885-.912.01-55.1-2.448,6.322-20.027A31.289,31.289,0,0,1,8128.929,2075.285Z" transform="translate(-8111.762 -2075.032)" fill="#d3bf97"/>
        <path id="Path_269" data-name="Path 269" d="M8099.73,2075.385l-6.321,20.027-4.9-.218h0l4.761-18.816A27.858,27.858,0,0,1,8099.73,2075.385Z" transform="translate(-8088.509 -2075.324)" fill="#b7833a"/>
      </g>
      <g id="Group_30" data-name="Group 30" transform="translate(73.712 12.589)">
        <path id="Rectangle_115" data-name="Rectangle 115" d="M.334,0H.755A.335.335,0,0,1,1.09.335v.817a.334.334,0,0,1-.334.334H.335A.335.335,0,0,1,0,1.151V.334A.334.334,0,0,1,.334,0Z" transform="translate(16.056 21.076) rotate(-114.543)" fill="#c9985a"/>
        <path id="Path_270" data-name="Path 270" d="M8496.915,2240.362l.393.854a.076.076,0,0,1-.036.1l-1.217.556a.076.076,0,0,1-.1-.037l-.392-.855a.075.075,0,0,1,.038-.1l1.215-.555A.074.074,0,0,1,8496.915,2240.362Z" transform="translate(-8481.472 -2224.134)" fill="#c9985a"/>
        <rect id="Rectangle_116" data-name="Rectangle 116" width="1.09" height="1.486" rx="0.335" transform="translate(12.852 14.158) rotate(-114.54)" fill="#c9985a"/>
        <rect id="Rectangle_117" data-name="Rectangle 117" width="1.09" height="1.486" rx="0.335" transform="matrix(-0.416, -0.909, 0.909, -0.416, 11.519, 11.241)" fill="#c9985a"/>
        <path id="Rectangle_118" data-name="Rectangle 118" d="M.335,0H.756A.334.334,0,0,1,1.09.334v.817a.335.335,0,0,1-.335.335H.335A.335.335,0,0,1,0,1.152V.335A.335.335,0,0,1,.335,0Z" transform="translate(8.495 4.531) rotate(-114.619)" fill="#c9985a"/>
        <path id="Rectangle_119" data-name="Rectangle 119" d="M.335,0H.756A.334.334,0,0,1,1.09.334v.817a.334.334,0,0,1-.334.334H.335A.335.335,0,0,1,0,1.152V.335A.335.335,0,0,1,.335,0Z" transform="matrix(-0.416, -0.909, 0.909, -0.416, 7.209, 1.61)" fill="#c9985a"/>
        <path id="Path_271" data-name="Path 271" d="M8414.629,2151.393s.134,1.246,2.453,1.711l.4.8s1.2,3.538-.543,4.482-1.16,1.91-1.16,1.91a5.932,5.932,0,0,1,4.947,2.241c2.04,2.554,5.868,7.05,5.868,7.05a3.8,3.8,0,0,0,4.584.809l-5.339-11.609-.444-.971-.872-1.906-.443-.971-.8-1.754-1.029-2.31-.579-1.39Z" transform="translate(-8414.629 -2149.106)" fill="#331b1e"/>
        <path id="Path_272" data-name="Path 272" d="M8471.176,2212.443l1.616-3.419-.444-.971-1.911,4.041Z" transform="translate(-8460.723 -2197.484)" fill="#331b1e"/>
        <path id="Path_273" data-name="Path 273" d="M8462.2,2196.424l1.862-3.936-.444-.971-2.156,4.557Z" transform="translate(-8453.313 -2183.827)" fill="#331b1e"/>
        <path id="Path_274" data-name="Path 274" d="M8453.873,2181.171l2.065-4.344-.444-.971-2.359,4.966Z" transform="translate(-8446.433 -2170.892)" fill="#331b1e"/>
        <path id="Path_275" data-name="Path 275" d="M8472.744,2239.309a.322.322,0,1,1-.16.427A.323.323,0,0,1,8472.744,2239.309Z" transform="translate(-8462.473 -2223.277)" fill="#c9985a"/>
        <path id="Path_276" data-name="Path 276" d="M8465,2228.765a.322.322,0,1,1-.16.427A.321.321,0,0,1,8465,2228.765Z" transform="translate(-8456.079 -2214.568)" fill="#c9985a"/>
        <path id="Path_277" data-name="Path 277" d="M8457.146,2217.751a.322.322,0,1,1,.269.586.322.322,0,0,1-.269-.586Z" transform="translate(-8449.592 -2205.471)" fill="#c9985a"/>
        <path id="Path_278" data-name="Path 278" d="M8449.617,2208.361a.322.322,0,1,1-.158.427A.323.323,0,0,1,8449.617,2208.361Z" transform="translate(-8443.373 -2197.715)" fill="#c9985a"/>
        <path id="Path_279" data-name="Path 279" d="M8451.085,2214.332a.206.206,0,0,1,.02.077.2.2,0,0,1-.194.2l-1.975.05a.2.2,0,0,1-.164-.08.2.2,0,0,1-.029-.181l.534-1.606-1.773.109a.2.2,0,0,1-.169-.077.206.206,0,0,1-.03-.184l.561-1.675-1.677.312a.2.2,0,0,1-.186-.065.2.2,0,0,1-.039-.193l.71-2.1a.2.2,0,0,1,.375.126l-.6,1.784,1.677-.312a.2.2,0,0,1,.186.065.2.2,0,0,1,.039.193l-.574,1.715,1.772-.11a.2.2,0,0,1,.169.077.2.2,0,0,1,.031.184l-.538,1.617,1.692-.043A.2.2,0,0,1,8451.085,2214.332Z" transform="translate(-8440.501 -2198.089)" fill="#c9985a"/>
      </g>
    </g>
    <path id="Path_280" data-name="Path 280" d="M8049.814,1629.024s-6.181,15.577-20.37,13.068c-7.683-1.358-4.416-2.907-10.335-12.742s-11.19-21.47-11.19-21.47S8038.833,1584.647,8049.814,1629.024Z" transform="translate(-646.959 -383.596)" fill="#313658"/>
    <path id="Path_281" data-name="Path 281" d="M7667.118,1491.38l63.357,32.814,20.2-22.573c1.241.624-27.632-30.567-69.5-22.621a72.061,72.061,0,0,0-10.048-.8C7667.008,1478.3,7667.118,1491.38,7667.118,1491.38Z" transform="translate(-365.474 -281.097)" fill="#863e32"/>
    <path id="Path_282" data-name="Path 282" d="M7991.693,1813.594l25.285-61.42-24.752-17.459c.476-1.305-23.467,33.12-14.451,66.347a72.12,72.12,0,0,0,.36,10.074C7978.709,1815.213,7991.693,1813.594,7991.693,1813.594Z" transform="translate(-620.383 -493.346)" fill="#723229"/>
    <path id="Path_283" data-name="Path 283" d="M7371.337,1496.467s-2.589,10.388-11.754,13.786-22.167,2.238-34.075,6.614c-4.961,1.823-8.912,3.392-11.833,4.6a5.979,5.979,0,0,1-8.04-3.888l-1.083-3.791,5.407.911,55.02-30.938s5.355-5.818,12.05-2.857c4.518,2,5.633,7.171,2.442,11.114C7377.935,1493.917,7371.337,1496.467,7371.337,1496.467Z" transform="translate(-66.013 -283.047)" fill="#863e32"/>
    <g id="Group_32" data-name="Group 32" transform="translate(7247.894 1167.517)">
      <path id="Path_284" data-name="Path 284" d="M7370.718,1310.927a14.273,14.273,0,1,0,16.012,12.29A14.272,14.272,0,0,0,7370.718,1310.927Z" transform="translate(-7358.304 -1310.763)" fill="#e9d4ad"/>
      <path id="Path_285" data-name="Path 285" d="M7430.405,1365.107l-2.853,5.313-5.929-.953-.808-6.131,5.1-2.749Z" transform="translate(-7409.935 -1351.881)" fill="#331b1e"/>
      <path id="Path_286" data-name="Path 286" d="M7372.327,1429.048l2.017-1.131-1.454-5.787-5.918-.868-.843,1.5S7368.7,1427.793,7372.327,1429.048Z" transform="translate(-7364.767 -1401.996)" fill="#331b1e"/>
      <path id="Path_287" data-name="Path 287" d="M7452.3,1443.518s5.872-1.465,8.023-4.867l-5.926-1.589-3.1,4.971Z" transform="translate(-7435.112 -1415.046)" fill="#331b1e"/>
      <path id="Path_288" data-name="Path 288" d="M7501.822,1364.7l-4.283-4.462,2.735-4.843S7502.314,1358.338,7501.822,1364.7Z" transform="translate(-7473.305 -1347.592)" fill="#331b1e"/>
      <path id="Path_289" data-name="Path 289" d="M7444.108,1312.681l-5.157,2.064-3.655-4.082S7438.779,1309.917,7444.108,1312.681Z" transform="translate(-7421.896 -1310.572)" fill="#331b1e"/>
      <path id="Path_290" data-name="Path 290" d="M7365.628,1334.055l-6.46,2.7a11.368,11.368,0,0,1,5.783-8.731Z" transform="translate(-7359.017 -1324.985)" fill="#331b1e"/>
      <path id="Path_291" data-name="Path 291" d="M7473.953,1382.009a.343.343,0,0,0,.375.3l3.762-.379a.345.345,0,0,0,.308-.377.339.339,0,0,0-.376-.307l-3.762.379a.344.344,0,0,0-.308.376A.092.092,0,0,1,7473.953,1382.009Z" transform="translate(-7453.822 -1368.941)" fill="#331b1e"/>
      <path id="Path_292" data-name="Path 292" d="M7457.548,1415.5a.311.311,0,0,0,.03.1l1.669,3.477a.344.344,0,1,0,.62-.3l-1.67-3.477a.343.343,0,0,0-.649.194Z" transform="translate(-7440.272 -1396.916)" fill="#331b1e"/>
      <path id="Path_293" data-name="Path 293" d="M7449.972,1337.745a.344.344,0,0,0,.68.009l.758-4.778a.344.344,0,0,0-.679-.108l-.758,4.778A.319.319,0,0,0,7449.972,1337.745Z" transform="translate(-7434.015 -1328.748)" fill="#331b1e"/>
      <path id="Path_294" data-name="Path 294" d="M7403,1412.572a.356.356,0,0,0,.061.155.344.344,0,0,0,.479.08l3.563-2.548a.343.343,0,1,0-.4-.559l-3.564,2.548A.346.346,0,0,0,7403,1412.572Z" transform="translate(-7395.221 -1392.393)" fill="#331b1e"/>
      <path id="Path_295" data-name="Path 295" d="M7411.357,1457.908a.341.341,0,0,0,.229.281,19.582,19.582,0,0,0,6.727,1.084.344.344,0,0,0-.015-.687,18.894,18.894,0,0,1-6.491-1.048.342.342,0,0,0-.451.37Z" transform="translate(-7402.121 -1431.943)" fill="#331b1e"/>
      <path id="Path_296" data-name="Path 296" d="M7499.725,1412.226a.343.343,0,0,0,.6.179,17.266,17.266,0,0,0,3.353-7.016.343.343,0,1,0-.672-.143,16.868,16.868,0,0,1-3.2,6.712A.34.34,0,0,0,7499.725,1412.226Z" transform="translate(-7475.108 -1388.543)" fill="#331b1e"/>
      <path id="Path_297" data-name="Path 297" d="M7360.633,1374.982a.044.044,0,0,0,0,.011l1.33,8.142a.345.345,0,0,0,.395.284.354.354,0,0,0,.284-.395l-1.33-8.142a.344.344,0,0,0-.68.1Z" transform="translate(-7360.225 -1363.451)" fill="#331b1e"/>
      <path id="Path_298" data-name="Path 298" d="M7382.046,1315.129a.343.343,0,0,0,.627.144c2.235-3.4,8.014-3.988,8.836-3.974a.339.339,0,0,0,.252,0,.348.348,0,0,0-.036-.666c-.349-.094-7.029.312-9.627,4.262A.338.338,0,0,0,7382.046,1315.129Z" transform="translate(-7377.911 -1310.614)" fill="#331b1e"/>
      <path id="Path_299" data-name="Path 299" d="M7392.923,1360.617a.344.344,0,0,0,.176.257l4.512,2.468a.343.343,0,1,0,.329-.6l-4.511-2.468a.343.343,0,0,0-.506.346Z" transform="translate(-7386.895 -1351.586)" fill="#331b1e"/>
      <path id="Path_300" data-name="Path 300" d="M7482.429,1321.763a.343.343,0,0,0,.118.217,19.4,19.4,0,0,1,4.795,5.69.344.344,0,0,0,.608-.32,20.061,20.061,0,0,0-4.958-5.893.343.343,0,0,0-.563.307Z" transform="translate(-7460.822 -1319.494)" fill="#331b1e"/>
    </g>
    <g id="Group_33" data-name="Group 33" transform="translate(7238.539 1202.012)">
      <path id="Path_301" data-name="Path 301" d="M7309.959,1546.588l-5.407-.91,1.849,6.474a3.513,3.513,0,0,0,4.767,2.26c2.983-1.279,7.778-3.245,14.341-5.657,11.907-4.376,24.909-3.216,34.075-6.614a18.216,18.216,0,0,0,8.984-7.647l-8.965-15.822Z" transform="translate(-7304.552 -1516.947)" fill="#e9d4ad"/>
      <path id="Path_302" data-name="Path 302" d="M7623.848,1508.8l-3,1.688,8.965,15.822a25.175,25.175,0,0,0,2.185-4.369l-7.291-13.178Z" transform="translate(-7565.795 -1508.758)" fill="#cd9948"/>
    </g>
    <path id="Path_303" data-name="Path 303" d="M7554.864,1566.067c-5.506.662-14.014,3.19-19.333,12.071,0,0,2.478-12.263,19.295-12.512C7556.478,1565.6,7558.033,1565.686,7554.864,1566.067Z" transform="translate(-256.79 -353.713)" fill="#d3bf97"/>
    <path id="Path_304" data-name="Path 304" d="M7983.068,1663.608l1.792,2.725s-8.064,14.849-10.559,41.327l30.976,3.479,12.754-36.773s-4.438-21.557-13.92-25.946C8004.11,1648.42,7991.534,1654.829,7983.068,1663.608Z" transform="translate(-619.192 -422.1)" fill="#e8a92d"/>
    <g id="Group_34" data-name="Group 34" transform="translate(7224.628 1223.681)">
      <path id="Path_305" data-name="Path 305" d="M7225.053,1643.853l-.265-.229a.383.383,0,0,1-.038-.59l.557-.487a.536.536,0,0,1,.679.03l.266.229a.384.384,0,0,1,.037.59l-.557.487A.536.536,0,0,1,7225.053,1643.853Z" transform="translate(-7224.628 -1640.841)" fill="#c9985a"/>
      <path id="Path_306" data-name="Path 306" d="M7241.884,1658.418l-.265-.229a.383.383,0,0,1-.038-.59l.557-.486a.535.535,0,0,1,.678.03l.265.229a.383.383,0,0,1,.038.59l-.557.487A.536.536,0,0,1,7241.884,1658.418Z" transform="translate(-7238.53 -1652.872)" fill="#c9985a"/>
      <path id="Path_307" data-name="Path 307" d="M7262.494,1676.175l-.266-.23a.384.384,0,0,1-.038-.59l.557-.486a.535.535,0,0,1,.678.03l.267.23a.383.383,0,0,1,.037.59l-.557.487A.535.535,0,0,1,7262.494,1676.175Z" transform="translate(-7255.553 -1667.537)" fill="#c9985a"/>
      <path id="Path_308" data-name="Path 308" d="M7279.089,1690.537l-.265-.229a.384.384,0,0,1-.038-.59l.557-.486a.537.537,0,0,1,.68.03l.265.229a.383.383,0,0,1,.038.59l-.558.486A.536.536,0,0,1,7279.089,1690.537Z" transform="translate(-7269.26 -1679.4)" fill="#c9985a"/>
      <path id="Path_309" data-name="Path 309" d="M7312.5,1719.53l-.265-.23a.383.383,0,0,1-.038-.59l.556-.487a.536.536,0,0,1,.679.03l.266.229a.383.383,0,0,1,.037.59l-.557.486A.536.536,0,0,1,7312.5,1719.53Z" transform="translate(-7296.854 -1703.346)" fill="#c9985a"/>
      <path id="Path_310" data-name="Path 310" d="M7325.84,1731.489l-.266-.229a.383.383,0,0,1-.037-.59l.556-.486a.536.536,0,0,1,.679.03l.265.229a.383.383,0,0,1,.038.59l-.556.486A.536.536,0,0,1,7325.84,1731.489Z" transform="translate(-7307.873 -1713.224)" fill="#c9985a"/>
      <path id="Path_311" data-name="Path 311" d="M7252.672,1646.558s-.751-1.205-3.544-.938l-2.14-1.924s-.442-.753,1.036-2.251.359-2.28.359-2.28a8.17,8.17,0,0,1-6.561-.68c-3.493-1.913-9.529-4.914-9.529-4.914s-3.445-1.189-5.661,1.058l11.149,9.648.962.832,1.887,1.634.962.833,1.737,1.5.962.832,1.314,1.209Z" transform="translate(-7226.283 -1633.257)" fill="#331b1e"/>
      <path id="Path_312" data-name="Path 312" d="M7280.4,1662.392l-.33,4.355.962.833.355-5.071Z" transform="translate(-7270.423 -1657.321)" fill="#331b1e"/>
      <path id="Path_313" data-name="Path 313" d="M7296.8,1673.144l-.353,4.949.962.833.376-5.666Z" transform="translate(-7283.946 -1666.202)" fill="#331b1e"/>
      <path id="Path_314" data-name="Path 314" d="M7312.333,1683.845l-.379,5.423.961.833.406-6.139Z" transform="translate(-7296.754 -1675.04)" fill="#331b1e"/>
      <path id="Path_315" data-name="Path 315" d="M7276.918,1653.087a.431.431,0,0,1-.549-.024.309.309,0,0,1-.031-.478.433.433,0,0,1,.55.024A.309.309,0,0,1,7276.918,1653.087Z" transform="translate(-7267.256 -1649.149)" fill="#c9985a"/>
      <path id="Path_316" data-name="Path 316" d="M7290.593,1661.2a.432.432,0,0,1-.549-.024.309.309,0,0,1-.03-.478.432.432,0,0,1,.549.024A.309.309,0,0,1,7290.593,1661.2Z" transform="translate(-7278.552 -1655.848)" fill="#c9985a"/>
      <path id="Path_317" data-name="Path 317" d="M7304.618,1669.745a.433.433,0,0,1-.55-.024.31.31,0,0,1-.031-.478.433.433,0,0,1,.55.024A.31.31,0,0,1,7304.618,1669.745Z" transform="translate(-7290.134 -1662.908)" fill="#c9985a"/>
      <path id="Path_318" data-name="Path 318" d="M7317.495,1676.768a.433.433,0,0,1-.55-.024.31.31,0,0,1-.031-.478.433.433,0,0,1,.55.024A.309.309,0,0,1,7317.495,1676.768Z" transform="translate(-7300.77 -1668.708)" fill="#c9985a"/>
      <path id="Path_319" data-name="Path 319" d="M7277.18,1650.393a.25.25,0,0,1-.057-.072.182.182,0,0,1,.116-.264l2.161-.674a.28.28,0,0,1,.221.028.232.232,0,0,1,.12.172l.186,1.778,1.91-.671a.278.278,0,0,1,.225.024.24.24,0,0,1,.123.174l.189,1.855,1.706-.843a.271.271,0,0,1,.238.007.236.236,0,0,1,.135.181l.235,2.331a.2.2,0,0,1-.219.2.259.259,0,0,1-.259-.212l-.2-1.977-1.7.843a.271.271,0,0,1-.238-.006.241.241,0,0,1-.136-.181l-.194-1.9-1.909.671a.276.276,0,0,1-.224-.024.232.232,0,0,1-.123-.174l-.187-1.79-1.854.578A.279.279,0,0,1,7277.18,1650.393Z" transform="translate(-7267.968 -1646.567)" fill="#c9985a"/>
    </g>
    <path id="Path_320" data-name="Path 320" d="M7991.515,1615.191l12.412,27.375s-25.761,20.193-41.553-.678c-16.306-21.552-14.847-20.432-14.847-20.432l36.428-7.612,3.379,1.356Z" transform="translate(-597.05 -393.543)" fill="#f1b632"/>
    <g id="Group_36" data-name="Group 36" transform="translate(7431.394 1184.963)">
      <path id="Path_321" data-name="Path 321" d="M8458.771,1548.343s13.213,26.983,17.957,29.084,12.656,2.372,12.656,2.372,2.638-15.59-3.952-42.224C8485.433,1537.575,8472.048,1529.6,8458.771,1548.343Z" transform="translate(-8450.733 -1514.119)" fill="#393e59"/>
      <path id="Path_322" data-name="Path 322" d="M8419.2,1412.125s-9.338,4.823-5.818,15.39a140.317,140.317,0,0,0,7.938,18.94l26.442-10s-3.937-23.853-21.479-25.59C8426.286,1410.862,8423.595,1410.4,8419.2,1412.125Z" transform="translate(-8412.593 -1410.805)" fill="#393e59"/>
      <path id="Path_323" data-name="Path 323" d="M8501.263,1735.78l-7.256,44.564,2.315,4.692s30.638-35.831,19.916-46.52C8516.238,1738.516,8506.975,1734.387,8501.263,1735.78Z" transform="translate(-8479.836 -1678.981)" fill="#393e59"/>
      <path id="Path_324" data-name="Path 324" d="M8455.009,1995.557a15.346,15.346,0,0,1-4.484,2.934c-2.251.8-6.538-4.941-6.538-4.941s1.583-1.566,2.831-.179,3.992-.342,3.992-.342l1.988-2.652S8455.781,1993.315,8455.009,1995.557Z" transform="translate(-8438.522 -1889.502)" fill="#393e59"/>
      <g id="Group_35" data-name="Group 35" transform="translate(4.495 15.157)">
        <path id="Path_325" data-name="Path 325" d="M8465.732,1497.887l-27.313,11.344c1.444,3.435,2.736,6.151,3.5,7.7l26.7-10.746A48.026,48.026,0,0,0,8465.732,1497.887Z" transform="translate(-8438.419 -1497.887)" fill="#393e59"/>
      </g>
      <path id="Path_326" data-name="Path 326" d="M8478.6,1530.3l-26.941,10.812a16.115,16.115,0,0,0-.775-1.574l27.2-10.968C8478.238,1529.053,8478.6,1530.3,8478.6,1530.3Z" transform="translate(-8444.221 -1508.07)" fill="#393e59"/>
    </g>
    <g id="Group_37" data-name="Group 37" transform="translate(7428.6 1164.243)">
      <path id="Path_327" data-name="Path 327" d="M8396.535,1293.375l7.389,13.424,16.063,1.032-6.878-16.069Z" transform="translate(-8396.535 -1291.763)" fill="#863e32"/>
    </g>
    <path id="Path_328" data-name="Path 328" d="M7898.591,1489.14l-11.527,33.074,35.779,21.746,19.4-21.132c1.676-1.826.216-3.7-1.4-5.583C7934.767,1510.154,7919.143,1494.938,7898.591,1489.14Z" transform="translate(-547.138 -290.543)" fill="#f1b632"/>
    <path id="Path_329" data-name="Path 329" d="M7924.02,1498.313l-12.212,34.072,2.077,1.291,11.944-34.662Z" transform="translate(-567.576 -298.119)" fill="#e9d4ad"/>
    <path id="Path_330" data-name="Path 330" d="M7940.934,1504.314l-11.837,34.877,1.252.745,11.941-35.062Z" transform="translate(-581.855 -303.076)" fill="#e9d4ad"/>
    <path id="Path_331" data-name="Path 331" d="M8426.837,1298.583l-1.1-2.377s5.464-3.02,4.249-11.634c.052-.891,3.746,2.556,3.479,6.667C8433.248,1294.552,8426.837,1298.583,8426.837,1298.583Z" transform="translate(-992.054 -121.463)" fill="#602922"/>
    <path id="Path_332" data-name="Path 332" d="M8360.229,1169.378s-12.644-.059-13.7,15.566c0,0-.092,2.579,1.3,3.92l.3.919-.713,4.123a1.135,1.135,0,0,0,1.143.944,4.3,4.3,0,0,0,1.226-.18l-.612,2.3.887,1.021s-.137,1.329.655,1.559a5.616,5.616,0,0,1,1.479.723l.59,1.987a2.682,2.682,0,0,0,2.206,1.38c1.371-.1,4.743-2.063,4.743-2.063s5.941-3.014,6.543-5.094a7.4,7.4,0,0,0,.068-3.838l-1.7-3.47,8.174-.864s2.182-5.389.4-9.9S8367.569,1169.247,8360.229,1169.378Z" transform="translate(-926.632 -26.434)" fill="#863e32"/>
    <g id="Group_38" data-name="Group 38" transform="translate(7427.735 1144.078)">
      <path id="Path_333" data-name="Path 333" d="M8446.63,1241.225c3.158-.854,3.885,2.142,3.6,3.954a8.29,8.29,0,0,0-.1,2.726l-4.676.494C8444.152,1245.948,8443.474,1242.079,8446.63,1241.225Z" transform="translate(-8435.177 -1229.732)" fill="#863e32"/>
      <path id="Path_334" data-name="Path 334" d="M8395.932,1187.181s-1.354-1.051-4.3.036l-.062-5.3,11.775-6.013a14.014,14.014,0,0,1,7.083,7.907c1.777,4.507-.405,9.9-.405,9.9l-3.5.369a8.287,8.287,0,0,1,.1-2.726c.286-1.812-.442-4.808-3.6-3.954s-2.478,4.723-1.176,7.174l-4.071-.228S8400.048,1189.927,8395.932,1187.181Z" transform="translate(-8391.569 -1175.901)" fill="#303030"/>
    </g>
    <path id="Path_335" data-name="Path 335" d="M8353.444,1263.24l.685,1.22a4.777,4.777,0,0,1,4.781-.666s.4-.4-2.126-1.525C8356.784,1262.269,8353.916,1262.669,8353.444,1263.24Z" transform="translate(-932.345 -103.159)" fill="#331b1e"/>
    <path id="Path_336" data-name="Path 336" d="M8367.68,1277.1s-2.408.088-2.63-.412.027,1.782.725,2.127S8367.68,1277.1,8367.68,1277.1Z" transform="translate(-941.866 -115.008)" fill="#331b1e"/>
    <path id="Path_337" data-name="Path 337" d="M8361.715,1326.63s2.674-.676,3.23.092l-2.478.952Z" transform="translate(-939.176 -156.09)" fill="#4f2e30"/>
    <g id="Group_39" data-name="Group 39" transform="translate(7420.747 1142.942)">
      <path id="Path_338" data-name="Path 338" d="M8351.422,1179.948c3.08-10.61,12.852-10.569,12.852-10.569a13.148,13.148,0,0,1,7.23,1.839l-20.059,8.989C8351.433,1180.117,8351.433,1180.035,8351.422,1179.948Z" transform="translate(-8351.422 -1169.376)"/>
    </g>
    <path id="Path_339" data-name="Path 339" d="M8436.281,1144.034s6.77-.284,3.12-4.817-10.044.2-6.657,4.369Z" transform="translate(-997.05 0)"/>
    <path id="Path_340" data-name="Path 340" d="M7962.7,1605.005c8.292,0,12.776-2.93,12.975-3.063l-1.059-2.4c-.041.025-4.478,2.813-11.92,2.813h-.3c-8.851-.087-34.417-19.688-43.3-27.083l-.938,2.567c1.333,1.111,32.611,27.052,44.214,27.165Z" transform="translate(-572.815 -361.683)" fill="#e9d4ad"/>
    <path id="Path_341" data-name="Path 341" d="M8406.8,1982.1c.282.409.2.437.085.946a5.436,5.436,0,0,1-2.23,3.105c-2.606,1.952-5.4,3.977-5.4,3.977s-5.369,3.858-6.407,3.3.221-1.231.221-1.231,4.544-2.214,4.521-2.808c-.009-.214-.425-.5-.425-.5s-4.957,3.439-7.219,3.042c0,0-1.336-.706.532-1.385a57.351,57.351,0,0,0,5.754-2.875l-.344-.538s-6.872,3.611-8.107,2.759,1.282-1.924,1.282-1.924a29.728,29.728,0,0,0,5.889-2.42l.053-.749s-5.648,2.213-6.838,1.856-1.283-1.037-.571-1.306,6.1-1.468,6.785-2.167c.33-.333,2.326-1.976,2.975-2.413.944-.638-.127-1.47-1.682-2.141l-.066-.028c-2.228-.913-.347-2.933-.347-2.933s.937-.85,1.414-.009c.29.515-.1.828.355,1.229.438.385,1.182.5,1.467.807s1.95.4,2.415.484a5.75,5.75,0,0,1,1.986.813c.176.086,1.639.458,1.776.486.546.111.516.212.8.623Z" transform="translate(-960.181 -692.08)" fill="#863e32"/>
    <path id="Path_342" data-name="Path 342" d="M8163.2,1507.985l-1.964,3.376-3.889-2.493,3.837-2.6Z" transform="translate(-770.375 -304.694)" fill="#723229"/>
    <path id="Path_343" data-name="Path 343" d="M8108.717,1455.728c.333-.284.269-.326.286-.786a4.794,4.794,0,0,0-1.2-3.146,48.27,48.27,0,0,0-4.04-4.4s-4.135-4.279-5.143-4.041-.091,1.1-.091,1.1,3.609,2.671,3.456,3.171c-.055.18.063.141.063.141s-3.707-3.891-5.721-4.064c0,0-1.3.3.139,1.3a20.131,20.131,0,0,1,4.515,3.592l-.021.068s-5.029-4.626-6.272-4.181.654,1.927.654,1.927a26.182,26.182,0,0,1,4.464,3.39l-.041.005s-4.352-2.825-5.445-2.791-.469,1.275.077,1.665,4.444,2.134,4.874,2.884c.205.358,1.8,2.646,1.144,2.849-.892.275-1.413-.806-2.887-.586l-.062.009c-2.1.273-.857,1.79-.857,1.79.055.106.344.154,1.172,0,.506-.09,3.772,1.252,4.188,1.285.944.073,2.188.679,2.722.572.168-.034,1.5-.019,1.621-.012.489.03.487-.064.821-.349Z" transform="translate(-717.827 -252.722)" fill="#723229"/>
  </g>
</svg>
