<svg xmlns="http://www.w3.org/2000/svg" width="193.794" height="193.794"
    viewBox="0 0 193.794 193.794">
    <g id="intro_4" transform="translate(-165.711 -320.103)">
        <circle id="Ellipse_70" data-name="Ellipse 70" cx="96.897" cy="96.897" r="96.897"
            transform="translate(165.711 320.103)" fill="#393e59" />
        <g id="Group_10571" data-name="Group 10571" transform="translate(172.691 330.282)">
            <g id="Group_10547" data-name="Group 10547" transform="translate(29.171 0)">
                <path id="Path_564" data-name="Path 564"
                    d="M504.781,385.767h0a42.7,42.7,0,0,0-42.7,42.7v20.752h13.753V429.516a28.95,28.95,0,0,1,28.95-28.95h0a28.95,28.95,0,0,1,28.95,28.95v19.706h13.753V428.47A42.7,42.7,0,0,0,504.781,385.767Z"
                    transform="translate(-444.036 -383.938)" fill="#edf0f4" />
                <g id="Group_10543" data-name="Group 10543" transform="translate(18.042 1.829)"
                    opacity="0.4">
                    <path id="Path_565" data-name="Path 565"
                        d="M507.572,385.86c-.923-.06-1.853-.093-2.791-.093h0a42.7,42.7,0,0,0-42.7,42.7v20.752h5.582V428.47A42.7,42.7,0,0,1,507.572,385.86Z"
                        transform="translate(-462.078 -385.767)" fill="#fff" />
                    <path id="Path_566" data-name="Path 566"
                        d="M713.661,466.7c-.942,0-1.872.047-2.791.134a28.952,28.952,0,0,1,26.159,28.816v19.706h5.582V495.648A28.95,28.95,0,0,0,713.661,466.7Z"
                        transform="translate(-665.376 -451.899)" fill="#c6cacc" />
                </g>
                <rect id="Rectangle_434" data-name="Rectangle 434" width="117.833" height="75.204"
                    rx="24.108" transform="translate(1.829 65.284)" fill="#393e59" />
                <path id="Path_567" data-name="Path 567"
                    d="M472.094,807.987h95.38a4.408,4.408,0,0,0,4.408-4.408V737.191a4.408,4.408,0,0,0-4.408-4.408H541.916S531.344,807.987,472.094,807.987Z"
                    transform="translate(-452.22 -667.499)" fill="#191c2c" />
                <path id="Path_568" data-name="Path 568"
                    d="M379.638,803.578V737.191a4.408,4.408,0,0,1,4.408-4.408h-6.226a4.408,4.408,0,0,0-4.408,4.408v66.387a4.408,4.408,0,0,0,4.408,4.408h6.226A4.408,4.408,0,0,1,379.638,803.578Z"
                    transform="translate(-371.584 -667.499)" fill="#fff" opacity="0.4" />
                <g id="Group_10544" data-name="Group 10544" transform="translate(0 63.455)">
                    <path id="Path_569" data-name="Path 569"
                        d="M478.666,801.644H369.649a6.244,6.244,0,0,1-6.237-6.237V729.02a6.244,6.244,0,0,1,6.237-6.237H478.666a6.244,6.244,0,0,1,6.237,6.237v66.387A6.244,6.244,0,0,1,478.666,801.644Zm-109.017-75.2a2.583,2.583,0,0,0-2.58,2.58v66.387a2.583,2.583,0,0,0,2.58,2.58H478.666a2.583,2.583,0,0,0,2.58-2.58V729.02a2.583,2.583,0,0,0-2.58-2.58Z"
                        transform="translate(-363.412 -722.783)" fill="#21293d" />
                </g>
                <g id="Group_10545" data-name="Group 10545" transform="translate(16.213)">
                    <path id="Path_570" data-name="Path 570"
                        d="M539.313,442.88H525.56a1.829,1.829,0,0,1-1.829-1.829V421.345a27.122,27.122,0,0,0-54.243,0v19.706a1.829,1.829,0,0,1-1.829,1.829H453.907a1.829,1.829,0,0,1-1.829-1.829V420.3a44.532,44.532,0,0,1,44.532-44.532h0A44.532,44.532,0,0,1,541.142,420.3v20.752A1.829,1.829,0,0,1,539.313,442.88Zm-11.924-3.657h10.1V420.3a40.875,40.875,0,1,0-81.75,0v18.923h10.1V421.345a30.779,30.779,0,0,1,61.558,0Z"
                        transform="translate(-452.078 -375.767)" fill="#21293d" />
                </g>
                <path id="Path_571" data-name="Path 571"
                    d="M652.359,829a12.468,12.468,0,1,0-20.333,9.673v14.57a7.865,7.865,0,0,0,15.73,0V838.67A12.442,12.442,0,0,0,652.359,829Z"
                    transform="translate(-579.145 -735.93)" fill="#686d77" />
                <path id="Path_572" data-name="Path 572"
                    d="M666.943,826.453c.018.275.031.552.031.832a12.442,12.442,0,0,1-4.6,9.673v14.57a7.867,7.867,0,0,1-9.772,7.63v2.191a7.865,7.865,0,0,0,15.73,0V846.78a12.468,12.468,0,0,0-1.384-20.327Z"
                    transform="translate(-599.717 -744.041)" fill="#4d545e" />
                <g id="Group_10546" data-name="Group 10546" transform="translate(46.448 78.769)">
                    <path id="Path_573" data-name="Path 573"
                        d="M631.719,854.761a9.7,9.7,0,0,1-9.693-9.693V831.332a14.3,14.3,0,1,1,19.387,0v13.736A9.7,9.7,0,0,1,631.719,854.761Zm0-44.577a10.639,10.639,0,0,0-6.71,18.9,1.828,1.828,0,0,1,.674,1.418v14.57a6.036,6.036,0,1,0,12.072,0V830.5a1.829,1.829,0,0,1,.674-1.418,10.639,10.639,0,0,0-6.71-18.9Z"
                        transform="translate(-617.422 -806.527)" fill="#21293d" />
                </g>
            </g>
            <g id="Group_10570" data-name="Group 10570" transform="translate(0 126.809)">
                <path id="Path_574" data-name="Path 574"
                    d="M243.1,1122.215H379.254a10.806,10.806,0,0,0,10.806-10.806v-21.358a10.806,10.806,0,0,0-10.806-10.806H224.69a10.806,10.806,0,0,0-10.806,10.806v21.358a10.806,10.806,0,0,0,10.806,10.806Z"
                    transform="translate(-212.055 -1077.416)" fill="#edf0f4" />
                <path id="Path_575" data-name="Path 575"
                    d="M629.512,1079.245H585.841c-6.752,14.515-25.156,42.97-65.7,42.97H629.512a10.806,10.806,0,0,0,10.806-10.806v-21.358A10.806,10.806,0,0,0,629.512,1079.245Z"
                    transform="translate(-462.314 -1077.416)" fill="#d7dadd" />
                <path id="Path_576" data-name="Path 576"
                    d="M220.64,1111.409v-21.358a10.806,10.806,0,0,1,10.806-10.806H224.69a10.806,10.806,0,0,0-10.806,10.806v21.358a10.806,10.806,0,0,0,10.806,10.806h6.756A10.806,10.806,0,0,1,220.64,1111.409Z"
                    transform="translate(-212.055 -1077.416)" fill="#fff" opacity="0.4" />
                <g id="Group_10548" data-name="Group 10548">
                    <path id="Path_577" data-name="Path 577"
                        d="M371.083,1115.872H216.519a12.649,12.649,0,0,1-12.635-12.634V1081.88a12.649,12.649,0,0,1,12.635-12.635H371.083a12.649,12.649,0,0,1,12.634,12.635v21.358A12.649,12.649,0,0,1,371.083,1115.872ZM216.519,1072.9a8.988,8.988,0,0,0-8.977,8.977v21.358a8.987,8.987,0,0,0,8.977,8.977H371.083a8.987,8.987,0,0,0,8.977-8.977V1081.88a8.987,8.987,0,0,0-8.977-8.977Z"
                        transform="translate(-203.884 -1069.245)" fill="#21293d" />
                </g>
                <g id="Group_10569" data-name="Group 10569" transform="translate(24.458 13.699)">
                    <g id="Group_10553" data-name="Group 10553" transform="translate(106.265)">
                        <g id="Group_10549" data-name="Group 10549" transform="translate(0 8.951)">
                            <path id="Path_578" data-name="Path 578"
                                d="M942.046,1195.858H920.137a1.371,1.371,0,1,1,0-2.743h21.909a1.371,1.371,0,1,1,0,2.743Z"
                                transform="translate(-918.766 -1193.115)" fill="#21293d" />
                        </g>
                        <g id="Group_10550" data-name="Group 10550" transform="translate(4.64)">
                            <path id="Path_579" data-name="Path 579"
                                d="M945.509,1164.808a1.372,1.372,0,0,1-1.119-2.162l12.63-17.9a1.371,1.371,0,1,1,2.241,1.581l-12.63,17.9A1.369,1.369,0,0,1,945.509,1164.808Z"
                                transform="translate(-944.139 -1144.163)" fill="#21293d" />
                        </g>
                        <g id="Group_10551" data-name="Group 10551" transform="translate(4.64)">
                            <path id="Path_580" data-name="Path 580"
                                d="M945.509,1164.808a1.372,1.372,0,0,1-1.119-2.162l12.63-17.9a1.371,1.371,0,1,1,2.241,1.581l-12.63,17.9A1.369,1.369,0,0,1,945.509,1164.808Z"
                                transform="translate(-944.139 -1144.163)" fill="#21293d" />
                        </g>
                        <g id="Group_10552" data-name="Group 10552" transform="translate(4.64 0)">
                            <path id="Path_581" data-name="Path 581"
                                d="M958.141,1164.808a1.37,1.37,0,0,1-1.122-.581l-12.63-17.9a1.371,1.371,0,1,1,2.241-1.581l12.63,17.9a1.372,1.372,0,0,1-1.12,2.162Z"
                                transform="translate(-944.139 -1144.163)" fill="#21293d" />
                        </g>
                    </g>
                    <g id="Group_10558" data-name="Group 10558" transform="translate(70.843)">
                        <g id="Group_10554" data-name="Group 10554" transform="translate(0 8.951)">
                            <path id="Path_582" data-name="Path 582"
                                d="M748.337,1195.858H726.429a1.371,1.371,0,1,1,0-2.743h21.909a1.371,1.371,0,0,1,0,2.743Z"
                                transform="translate(-725.057 -1193.115)" fill="#21293d" />
                        </g>
                        <g id="Group_10555" data-name="Group 10555" transform="translate(4.64)">
                            <path id="Path_583" data-name="Path 583"
                                d="M751.8,1164.808a1.372,1.372,0,0,1-1.119-2.162l12.63-17.9a1.371,1.371,0,1,1,2.241,1.581l-12.63,17.9A1.37,1.37,0,0,1,751.8,1164.808Z"
                                transform="translate(-750.429 -1144.163)" fill="#21293d" />
                        </g>
                        <g id="Group_10556" data-name="Group 10556" transform="translate(4.64)">
                            <path id="Path_584" data-name="Path 584"
                                d="M751.8,1164.808a1.372,1.372,0,0,1-1.119-2.162l12.63-17.9a1.371,1.371,0,1,1,2.241,1.581l-12.63,17.9A1.37,1.37,0,0,1,751.8,1164.808Z"
                                transform="translate(-750.429 -1144.163)" fill="#21293d" />
                        </g>
                        <g id="Group_10557" data-name="Group 10557" transform="translate(4.64 0)">
                            <path id="Path_585" data-name="Path 585"
                                d="M764.431,1164.808a1.37,1.37,0,0,1-1.122-.581l-12.63-17.9a1.371,1.371,0,1,1,2.241-1.581l12.63,17.9a1.372,1.372,0,0,1-1.119,2.162Z"
                                transform="translate(-750.429 -1144.163)" fill="#21293d" />
                        </g>
                    </g>
                    <g id="Group_10563" data-name="Group 10563" transform="translate(35.422)">
                        <g id="Group_10559" data-name="Group 10559" transform="translate(0 8.951)">
                            <path id="Path_586" data-name="Path 586"
                                d="M554.627,1195.858H532.718a1.371,1.371,0,0,1,0-2.743h21.909a1.371,1.371,0,0,1,0,2.743Z"
                                transform="translate(-531.347 -1193.115)" fill="#21293d" />
                        </g>
                        <g id="Group_10560" data-name="Group 10560" transform="translate(4.64)">
                            <path id="Path_587" data-name="Path 587"
                                d="M558.089,1164.808a1.372,1.372,0,0,1-1.119-2.162l12.63-17.9a1.371,1.371,0,1,1,2.241,1.581l-12.63,17.9A1.37,1.37,0,0,1,558.089,1164.808Z"
                                transform="translate(-556.719 -1144.163)" fill="#21293d" />
                        </g>
                        <g id="Group_10561" data-name="Group 10561" transform="translate(4.64)">
                            <path id="Path_588" data-name="Path 588"
                                d="M558.089,1164.808a1.372,1.372,0,0,1-1.119-2.162l12.63-17.9a1.371,1.371,0,1,1,2.241,1.581l-12.63,17.9A1.37,1.37,0,0,1,558.089,1164.808Z"
                                transform="translate(-556.719 -1144.163)" fill="#21293d" />
                        </g>
                        <g id="Group_10562" data-name="Group 10562" transform="translate(4.64 0)">
                            <path id="Path_589" data-name="Path 589"
                                d="M570.721,1164.808a1.369,1.369,0,0,1-1.122-.581l-12.63-17.9a1.371,1.371,0,1,1,2.241-1.581l12.63,17.9a1.372,1.372,0,0,1-1.119,2.162Z"
                                transform="translate(-556.719 -1144.163)" fill="#21293d" />
                        </g>
                    </g>
                    <g id="Group_10568" data-name="Group 10568">
                        <g id="Group_10564" data-name="Group 10564" transform="translate(0 8.951)">
                            <path id="Path_590" data-name="Path 590"
                                d="M360.918,1195.858H339.009a1.371,1.371,0,0,1,0-2.743h21.909a1.371,1.371,0,1,1,0,2.743Z"
                                transform="translate(-337.638 -1193.115)" fill="#21293d" />
                        </g>
                        <g id="Group_10565" data-name="Group 10565" transform="translate(4.639)">
                            <path id="Path_591" data-name="Path 591"
                                d="M364.38,1164.808a1.372,1.372,0,0,1-1.119-2.162l12.63-17.9a1.371,1.371,0,1,1,2.241,1.581l-12.629,17.9A1.37,1.37,0,0,1,364.38,1164.808Z"
                                transform="translate(-363.01 -1144.163)" fill="#21293d" />
                        </g>
                        <g id="Group_10566" data-name="Group 10566" transform="translate(4.639)">
                            <path id="Path_592" data-name="Path 592"
                                d="M364.38,1164.808a1.372,1.372,0,0,1-1.119-2.162l12.63-17.9a1.371,1.371,0,1,1,2.241,1.581l-12.629,17.9A1.37,1.37,0,0,1,364.38,1164.808Z"
                                transform="translate(-363.01 -1144.163)" fill="#21293d" />
                        </g>
                        <g id="Group_10567" data-name="Group 10567" transform="translate(4.639 0)">
                            <path id="Path_593" data-name="Path 593"
                                d="M377.012,1164.808a1.37,1.37,0,0,1-1.122-.581l-12.63-17.9a1.371,1.371,0,1,1,2.241-1.581l12.629,17.9a1.372,1.372,0,0,1-1.119,2.162Z"
                                transform="translate(-363.01 -1144.163)" fill="#21293d" />
                        </g>
                    </g>
                </g>
            </g>
        </g>
    </g>
</svg>
