<svg xmlns="http://www.w3.org/2000/svg" width="314.3" height="360.999" viewBox="0 0 314.3 360.999">
  <g id="info_1" transform="translate(358 32)">
    <g id="Group_21" data-name="Group 21" transform="translate(-358 -32)">
      <g id="Group_19" data-name="Group 19" transform="translate(0 0)">
        <g id="Group_17" data-name="Group 17">
          <path id="Path_178" data-name="Path 178" d="M7816,2106.218s12.877,32.661,19.19,40.715,22.991-18.447,22.991-18.447-6.387-7.95-18.021-36.585S7816,2106.218,7816,2106.218Z" transform="translate(-7638.46 -1978.894)" fill="#be7550"/>
          <path id="Path_179" data-name="Path 179" d="M7802.821,1988.495s12.365,16.7,22.507,52.792c0,0-17.6,14.914-29.53,15.511,0,0-15.212-21.477-16.106-22.67S7797.018,2002.818,7802.821,1988.495Z" transform="translate(-7614.978 -1918.436)" fill="#393e59"/>
          <path id="Path_180" data-name="Path 180" d="M7869.425,2231.726c4.221,9.336,73.775,39.673,73.775,39.673l5.768-4.673c-.224,0-42.382-50.833-56.553-53.447C7892.415,2213.278,7865.2,2222.389,7869.425,2231.726Z" transform="translate(-7672.695 -2063.686)" fill="#be7550"/>
          <path id="Path_181" data-name="Path 181" d="M7790.26,2094.885l-4.4-6.19c1.967-1.05,13.323-15.962,14.741-20.408C7800.6,2068.287,7798.587,2085.662,7790.26,2094.885Z" transform="translate(-7618.984 -1969.996)" fill="#0f111c"/>
          <path id="Path_182" data-name="Path 182" d="M7324.374,1962.925a7.384,7.384,0,0,1-4.847-1.74,11.9,11.9,0,0,1-2.589-2.79,8.756,8.756,0,0,0-2.392-3.615c-1.981-2.081,5.6-12.193,10.063-9.349a38.49,38.49,0,0,1,5.3,3.713l3.259,8.335S7328.693,1964.643,7324.374,1962.925Z" transform="translate(-7314.223 -1890.287)" fill="#be7550"/>
          <g id="Group_14" data-name="Group 14" transform="translate(79.904 237.318)">
            <path id="Path_183" data-name="Path 183" d="M7585.1,2562.917a1.006,1.006,0,1,0,1.055-.966A1.005,1.005,0,0,0,7585.1,2562.917Z" transform="translate(-7569.16 -2526.307)" fill="#cc9b5a"/>
            <path id="Path_184" data-name="Path 184" d="M7570.906,2549.488a1.006,1.006,0,1,0,1.055-.966A1,1,0,0,0,7570.906,2549.488Z" transform="translate(-7559.989 -2517.63)" fill="#cc9b5a"/>
            <path id="Path_185" data-name="Path 185" d="M7561.546,2535.991a1.007,1.007,0,1,0,1.056-.966A1.006,1.006,0,0,0,7561.546,2535.991Z" transform="translate(-7553.94 -2508.909)" fill="#cc9b5a"/>
            <path id="Path_186" data-name="Path 186" d="M7554.876,2519.132a1.006,1.006,0,1,0,1.056-.966A1.007,1.007,0,0,0,7554.876,2519.132Z" transform="translate(-7549.63 -2498.015)" fill="#cc9b5a"/>
            <path id="Path_187" data-name="Path 187" d="M7548.966,2497.073a1.02,1.02,0,0,0-.436,1.366,1,1,0,0,0,1.355.434,1.021,1.021,0,0,0,.437-1.366A1,1,0,0,0,7548.966,2497.073Z" transform="translate(-7545.458 -2484.313)" fill="#cc9b5a"/>
            <ellipse id="Ellipse_6" data-name="Ellipse 6" cx="1.014" cy="1.006" rx="1.014" ry="1.006" transform="matrix(0.267, -0.964, 0.964, 0.267, 0, 8.593)" fill="#cc9b5a"/>
            <path id="Path_188" data-name="Path 188" d="M7549.835,2461.327s-5.346-1.272-7.685,4.785c-.711,1.842,4.17,10.138,4.17,10.138s1.108,7.244,2.9,10.435c2.893,5.161,7.813,12.99,13.04,12.129,1.469-.241,2.909-1.5,2.916-4.931.014-6.868-5.817-20.714-5.817-20.714l-5.3-8.36Z" transform="translate(-7541.362 -2461.215)" fill="#231f20"/>
          </g>
          <path id="Path_189" data-name="Path 189" d="M7603.2,2459.05s-14.831-12.206-19.985-11.335c-3.275.554-4.265,1.858-8.6,4.987-3.63,2.62-9,.979-9,.979l2.863,7.157,8.174,10.144c2.376,2.18,25.354,13.125,37.285,18.2l7.756,1.193S7619.308,2483.51,7603.2,2459.05Z" transform="translate(-7476.668 -2215.145)" fill="#d3bf97"/>
          <path id="Path_190" data-name="Path 190" d="M7557.164,2470.2a6.046,6.046,0,0,0,1.811,5.862c1.45,1.307,3,2.8,5.041,2.282,4.246-1.08,2.774-5.738,2.774-5.738S7559.258,2456.873,7557.164,2470.2Z" transform="translate(-7471.129 -2226.241)" fill="#d3bf97"/>
          <path id="Path_191" data-name="Path 191" d="M7469.852,1861.212s29.409.386,49.991,3.966-20.88,33.408-20.88,33.408l-26.846-3.281Z" transform="translate(-7414.787 -1836.189)" fill="#be7550"/>
          <g id="Group_15" data-name="Group 15" transform="translate(86.339 34.418)">
            <path id="Path_192" data-name="Path 192" d="M7596.8,1999.633c19.635,14.449,46.827.521,61.95-20.03s11.466-48.924-8.169-63.373-52.649-12.3-62.936,11.047C7580.336,1943.869,7577.165,1985.184,7596.8,1999.633Z" transform="translate(-7573.588 -1900.286)" fill="#191c2c"/>
            <path id="Path_193" data-name="Path 193" d="M7714.729,1923.6s-25.089-26.657-50.178-34.5-21.168,21.168-21.168,21.168l54.894,56.8S7715.121,1945.557,7714.729,1923.6Z" transform="translate(-7613.115 -1887.763)" fill="#191c2c"/>
            <path id="Path_194" data-name="Path 194" d="M7558.718,2090.413s-3.528-6.664,8.623-23.913,56.45,31.361,56.45,31.361" transform="translate(-7558.242 -2000.866)" fill="#191c2c"/>
          </g>
          <path id="Path_195" data-name="Path 195" d="M7736.866,1875.354a1.132,1.132,0,0,1,.416-.962c1.679-1.373,7.54-6.461,10.082-12.561.186-.448,1.741-4.26,1.987-4.474,3.429-2.973,11.077,18.222,12.193,21.384a1.121,1.121,0,0,1-.011.776c-.69,1.815-3.587,9.478-3.631,10.354C7757.637,1895.2,7738.725,1899.544,7736.866,1875.354Z" transform="translate(-7587.323 -1833.514)" fill="#be7550"/>
          <path id="Path_196" data-name="Path 196" d="M7665.976,2214.936s63.237,62.342,80.538,82.625l-19.985,22.819s-41.163-27.89-49.516-32.663-26.249-79.344-26.249-79.344Z" transform="translate(-7531.688 -2060.517)" fill="#a3563e"/>
          <path id="Path_197" data-name="Path 197" d="M7655.657,2207.347l-.3,2.685,37.286,34.9a47.215,47.215,0,0,1-36.192,24.46c-26.05,2.983-21.875-65.225-21.875-65.225l7.558-3.381Z" transform="translate(-7521.069 -2055.613)" fill="#002140"/>
          <path id="Path_198" data-name="Path 198" d="M7728.29,2529.932s-6.663,8.484-11.816,11.2-14.649-10.243-14.649-10.243Z" transform="translate(-7564.682 -2268.301)" fill="#863e32"/>
          <path id="Path_199" data-name="Path 199" d="M7705.374,2509.271s-9.782,16.427-21.267,13.445c0,0-14.168-13.871-17.748-24.758Z" transform="translate(-7541.766 -2247.639)" fill="#be7550"/>
          <path id="Path_200" data-name="Path 200" d="M7667.063,2499.644a34.53,34.53,0,0,0,3.554,7.084,31.569,31.569,0,0,0,8.627,5.133l.185.073-4.728-4.049Z" transform="translate(-7542.22 -2248.729)" fill="#723229"/>
          <path id="Path_201" data-name="Path 201" d="M7964.653,2571.649s-12.06-4.2-15.989-9.892c-11.8-17.1-47.681-71.8-60.994-90.975-1.753-2.524-1.889-7.606-3.877-10.34l-20.582,21.675,12.13,29.034s3.978,19.886,23.963,28.039c11.98,4.888,39.97,29.829,39.97,29.829S7965.548,2590.143,7964.653,2571.649Z" transform="translate(-7668.967 -2223.397)" fill="#a3563e"/>
          <path id="Path_202" data-name="Path 202" d="M7611.14,2420.819" transform="translate(-7506.084 -2197.794)" fill="#863e32"/>
          <path id="Path_203" data-name="Path 203" d="M7777.969,1893.278c-1.629-2.312-8.765-12.546-11.146-17.627a1.132,1.132,0,0,0-2.128.23c-1.279,5.667-.036,20.163,9.511,25.557a1.139,1.139,0,0,0,1.639-.611l2.266-6.526A1.126,1.126,0,0,0,7777.969,1893.278Z" transform="translate(-7605.037 -1845.098)" fill="#a3563e"/>
          <g id="Group_16" data-name="Group 16" transform="translate(159.592 2.021)">
            <path id="Path_204" data-name="Path 204" d="M7800.4,1809.509a1.149,1.149,0,0,1,.085.238c.265,1.112,2.064,9.355-1.142,16.021-3.444,7.162-.854,2.553-2.422,6.853s-9.955,12.621-10.612,12.82-5.225-1.624-8.04-3.976-11.227-10.992-11.035-15.735a12.477,12.477,0,0,1,1.463-6,1.134,1.134,0,0,0,.1-1c-.678-1.806-2.426-8.021,1.484-16.64C7774.952,1791.807,7793.653,1795.436,7800.4,1809.509Z" transform="translate(-7766.542 -1796.201)" fill="#be7550"/>
            <path id="Path_205" data-name="Path 205" d="M7820.5,1857.628s-1.124-4.468-7.588-5.01c-2-.168-1.163.406-1.163.406a25.471,25.471,0,0,1,4.02,3.035,11.02,11.02,0,0,1,2.5,3.137.305.305,0,0,0,.163.114,1.078,1.078,0,0,0,.839-.023C7819.821,1859.044,7820.763,1858.492,7820.5,1857.628Z" transform="translate(-7795.191 -1832.636)" fill="#462900"/>
            <path id="Path_206" data-name="Path 206" d="M7850.33,1873.957a1.127,1.127,0,0,0-.565-1.747c-1.251-.406-3.371-.98-4.035-.449a1.468,1.468,0,0,0-.443,1.463,1.121,1.121,0,0,0,1.013.919l3.011.271a1.122,1.122,0,0,0,.934-.354C7850.273,1874.026,7850.3,1873.992,7850.33,1873.957Z" transform="translate(-7816.954 -1844.888)" fill="#462900"/>
            <path id="Path_207" data-name="Path 207" d="M7772.169,1832.927a1.138,1.138,0,0,0,.017-.3c-.1-1.159-.895-8.421-4.847-5.463-4.29,3.209-.931,12.723,1.427,12.3C7770.9,1839.069,7771.987,1833.884,7772.169,1832.927Z" transform="translate(-7765.274 -1815.751)" fill="#a3563e"/>
          </g>
          <path id="Path_208" data-name="Path 208" d="M7814.832,1866.921a1.132,1.132,0,0,0-1.758.946c.009,1.013.479,2.1,2.378,2.257a1.8,1.8,0,0,0,1.041-.184,1.123,1.123,0,0,0,.024-1.908Z" transform="translate(-7636.57 -1839.756)" fill="#462900"/>
          <path id="Path_209" data-name="Path 209" d="M7847.013,1883.155a1.129,1.129,0,0,1,.678,1.753c-.594.809-1.522,1.388-2.689-.128l-.051-.069a1.133,1.133,0,0,1,1.182-1.757Z" transform="translate(-7657.028 -1850.218)" fill="#462900"/>
          <path id="Path_210" data-name="Path 210" d="M7832.581,1871.835s.978,11.244-1,12.289c-1.513.8-4.072-1.251-5.2-2.262a1.13,1.13,0,0,1-.308-1.224c.678-1.879,2.6-7.039,4.009-9.223a1.141,1.141,0,0,1,1.216-.49C7831.947,1871.072,7832.749,1871.355,7832.581,1871.835Z" transform="translate(-7644.928 -1842.446)" fill="#a3563e"/>
          <path id="Path_211" data-name="Path 211" d="M7802.464,1803.4a1.149,1.149,0,0,1,1.23-.219c2.7,1.173,11.822,5.364,13.072,9.044,1.835,5.4,10.973.206,12.2-7.872.659-4.34-1.736-8.275-2.9-9.889a1.127,1.127,0,0,0-1.392-.364c-1.673.782-5.719,2.189-9.278-.337-7.183-5.1-15.073-3.739-20.061,1.79C7784.062,1808.056,7798.878,1806.638,7802.464,1803.4Z" transform="translate(-7622.418 -1790.555)" fill="#231f20"/>
          <path id="Path_212" data-name="Path 212" d="M7539.936,1859.354s42.854,3.927,45.24,9.893c1.811,4.527-4.125,24.019-17.5,31.406a26.882,26.882,0,0,1-15.51,3.145l-20.582-5.071S7529.5,1875.461,7539.936,1859.354Z" transform="translate(-7454.567 -1834.988)" fill="#393e59"/>
          <path id="Path_213" data-name="Path 213" d="M7783.24,1801.109a24.5,24.5,0,0,0-8.786,12.012,1.125,1.125,0,0,1-1.359.757,1.939,1.939,0,0,1-1.587-2.627c.8-2.784.2-6.562-2.187-7.159s-3.579.994-3.778,5.17-.547-3.406-.547-3.406,0-7.184,4.026-11.062c7.111-6.848,17.2-4.822,15.213,1.144S7783.24,1801.109,7783.24,1801.109Z" transform="translate(-7605.501 -1790.49)" fill="#231f20"/>
          <path id="Path_214" data-name="Path 214" d="M7383.353,1861.481c-13.225,2.834-45.639,47.229-45.639,47.229l7.457.447s31.47,1.839,48.949-19.215C7394.12,1889.942,7394.983,1858.989,7383.353,1861.481Z" transform="translate(-7329.402 -1836.271)" fill="#be7550"/>
          <path id="Path_215" data-name="Path 215" d="M7458.413,1955.846l-12.423-1.325a.364.364,0,0,0-.151.708l9.157,3Z" transform="translate(-7399.107 -1896.481)" fill="#863e32"/>
          <path id="Path_216" data-name="Path 216" d="M7582.042,2006.829s1.83-2.973,6.761-19.506c2.245-7.527,12.4-10.624,14.84-17.531,0,0-8.253,6.662-18.793,5.27C7584.849,1975.062,7580.922,1990.8,7582.042,2006.829Z" transform="translate(-7487.151 -1906.351)" fill="#0f111c"/>
          <path id="Path_217" data-name="Path 217" d="M7704.035,2263.206l.795,5.568,1.889,10.937s11.187,15.063,10.738,23.565l-12.378-23.565.446-.746-5.865-11.186S7700.754,2260.522,7704.035,2263.206Z" transform="translate(-7563.284 -2095.563)" fill="#011d33"/>
          <path id="Path_218" data-name="Path 218" d="M7580.4,2188.6s-.519-1.885,10.838,21.576c11.979,24.748,29.531,43.649,27.53,88.122l-16.885,8.621-14.181-10.48s-47.771-51.214-40.464-80.123c0,0-8.01,3.582-12.229-10.911-10.262-35.264,11.092-40.347,28.089-27.542C7567.43,2181.127,7578.108,2182.022,7580.4,2188.6Z" transform="translate(-7455.161 -2036.671)" fill="#be7550"/>
          <path id="Path_219" data-name="Path 219" d="M7552.388,2230.7s-22.981-29.691-22.782-55.345,11.647-34.142,11.647-34.142l35.073,23.665,5.493,7.955,14.517,28.238S7565.313,2203.055,7552.388,2230.7Z" transform="translate(-7453.397 -2017.117)" fill="#002140"/>
          <path id="Path_220" data-name="Path 220" d="M7621.838,2099.676s-13.72,14.9-12.937,23.521-23.422-12-23.422-12l-30.166-19.329s-1.737-7.859,9.679-23.163S7621.838,2099.676,7621.838,2099.676Z" transform="translate(-7469.949 -1968.263)" fill="#191c2c"/>
          <path id="Path_221" data-name="Path 221" d="M8076.026,2362.012s.172,10.642,1.05,12.518,8.431,3.543,12.015,2,3.356-9.434-6.3-16.06S8076.026,2362.012,8076.026,2362.012Z" transform="translate(-7806.223 -2157.123)" fill="#be7550"/>
        </g>
        <g id="Group_18" data-name="Group 18" transform="translate(147.787 307.983)">
          <circle id="Ellipse_7" data-name="Ellipse 7" cx="19.541" cy="19.541" r="19.541" transform="translate(0 38.972) rotate(-85.692)" fill="#e9d4ad"/>
          <path id="Path_222" data-name="Path 222" d="M7779.94,2695.838l-6.7,4.821,2.353,7.88h8.467l2.823-7.409Z" transform="translate(-7758.614 -2683.488)" fill="#002140"/>
          <path id="Path_223" data-name="Path 223" d="M7745.651,2746.971l1.176-2.94,8.114.94,2.234,7.879-1.881,1.411S7748,2751.675,7745.651,2746.971Z" transform="translate(-7740.789 -2714.63)" fill="#002140"/>
          <path id="Path_224" data-name="Path 224" d="M7735.348,2694.635s.941-8.232,5.175-11.76l3.214,7.762-6.193,5.1Z" transform="translate(-7734.131 -2675.112)" fill="#002140"/>
          <path id="Path_225" data-name="Path 225" d="M7773.237,2665.641l6.821,5.018,6.086-4.577S7781.783,2663.838,7773.237,2665.641Z" transform="translate(-7758.614 -2663.523)" fill="#002140"/>
          <path id="Path_226" data-name="Path 226" d="M7830.513,2683.54l-1.882,7.369,6.194,4.234S7835.218,2690.282,7830.513,2683.54Z" transform="translate(-7794.408 -2675.542)" fill="#002140"/>
          <path id="Path_227" data-name="Path 227" d="M7810.534,2746.625l-2.509,9.251s7.918-1.568,10.819-9.408Z" transform="translate(-7781.093 -2716.204)" fill="#002140"/>
          <path id="Path_228" data-name="Path 228" d="M7791.812,2685.887a.471.471,0,0,1-.47-.456l-.156-5.174a.472.472,0,0,1,.456-.485.463.463,0,0,1,.484.457l.157,5.174a.471.471,0,0,1-.456.485Z" transform="translate(-7770.212 -2673.107)" fill="#002140"/>
          <path id="Path_229" data-name="Path 229" d="M7763.215,2706.07a.45.45,0,0,1-.146-.024l-5.019-1.646a.47.47,0,0,1,.294-.894l5.018,1.646a.471.471,0,0,1-.147.917Z" transform="translate(-7748.592 -2688.428)" fill="#002140"/>
          <path id="Path_230" data-name="Path 230" d="M7809.825,2705.861a.47.47,0,0,1-.133-.921l6.351-1.882a.47.47,0,1,1,.267.9l-6.35,1.881A.452.452,0,0,1,7809.825,2705.861Z" transform="translate(-7781.953 -2688.141)" fill="#002140"/>
          <path id="Path_231" data-name="Path 231" d="M7771.048,2736.638a.471.471,0,0,1-.415-.692l2.822-5.292a.471.471,0,0,1,.831.442l-2.822,5.292A.474.474,0,0,1,7771.048,2736.638Z" transform="translate(-7756.896 -2705.824)" fill="#002140"/>
          <path id="Path_232" data-name="Path 232" d="M7743.319,2727.606a.472.472,0,0,1-.423-.262,26.846,26.846,0,0,1-2.672-8.938.471.471,0,0,1,.936-.1,25.874,25.874,0,0,0,2.581,8.624.471.471,0,0,1-.422.678Z" transform="translate(-7737.281 -2697.734)" fill="#002140"/>
          <path id="Path_233" data-name="Path 233" d="M7749.113,2673.121a.47.47,0,0,1-.35-.785,23.655,23.655,0,0,1,8.925-5.8.47.47,0,0,1,.313.886,23.074,23.074,0,0,0-8.539,5.546A.469.469,0,0,1,7749.113,2673.121Z" transform="translate(-7742.722 -2664.534)" fill="#002140"/>
          <path id="Path_234" data-name="Path 234" d="M7787.323,2769.587h-.015l-11.29-.353a.472.472,0,0,1-.455-.485.485.485,0,0,1,.485-.456l11.289.353a.47.47,0,0,1-.015.94Z" transform="translate(-7760.117 -2730.308)" fill="#002140"/>
          <path id="Path_235" data-name="Path 235" d="M7832.98,2728.1a.471.471,0,0,1-.307-.827c4.212-3.639,3.982-11.589,3.816-12.7a.466.466,0,0,1-.046-.343.477.477,0,0,1,.91-.07c.19.457.831,9.6-4.066,13.828A.466.466,0,0,1,7832.98,2728.1Z" transform="translate(-7796.916 -2695.129)" fill="#002140"/>
          <path id="Path_236" data-name="Path 236" d="M7807.111,2737.03a.47.47,0,0,1-.379-.193l-4.155-5.684a.47.47,0,1,1,.76-.555l4.155,5.684a.47.47,0,0,1-.381.748Z" transform="translate(-7777.515 -2705.825)" fill="#002140"/>
          <path id="Path_237" data-name="Path 237" d="M7816.84,2674.03a.47.47,0,0,1-.315-.121,26.561,26.561,0,0,0-8.58-5.494.471.471,0,0,1,.327-.883,27.454,27.454,0,0,1,8.884,5.678.47.47,0,0,1-.315.819Z" transform="translate(-7780.842 -2665.179)" fill="#002140"/>
        </g>
      </g>
      <path id="Path_238" data-name="Path 238" d="M7898.609,2506.66l-25.2,14.093,2.981,7.859,27.372-15.177Z" transform="translate(-7675.554 -2253.263)" fill="#d3bf97"/>
      <path id="Path_239" data-name="Path 239" d="M7965.273,2608.8a22.5,22.5,0,0,1-4.578-4.308c-1.9-2.484-51.854-77.916-51.854-77.916l-27.011,14.905,5.149,12.105s3.93,21.365,26.017,29.5c0,0,10.027,4.743,29.677,21.545S7962.4,2623.676,7965.273,2608.8Z" transform="translate(-7680.999 -2266.131)" fill="#e9d4ad"/>
      <g id="Group_20" data-name="Group 20" transform="translate(270.705 342.214)">
        <path id="Rectangle_103" data-name="Rectangle 103" d="M.334,0H1.564A.335.335,0,0,1,1.9.335v1.92a.334.334,0,0,1-.334.334H.335A.335.335,0,0,1,0,2.254V.334A.334.334,0,0,1,.334,0Z" transform="matrix(-0.996, 0.085, -0.085, -0.996, 43.073, 15.403)" fill="#c9985a"/>
        <path id="Path_240" data-name="Path 240" d="M8177.532,2798.053l1.633-.135a.131.131,0,0,0,.119-.141l-.2-2.322a.131.131,0,0,0-.141-.119l-1.633.138a.131.131,0,0,0-.119.141l.2,2.319A.13.13,0,0,0,8177.532,2798.053Z" transform="translate(-8142.561 -2782.012)" fill="#c9985a"/>
        <rect id="Rectangle_104" data-name="Rectangle 104" width="1.899" height="2.589" rx="0.335" transform="translate(29.833 16.458) rotate(175.135)" fill="#c9985a"/>
        <rect id="Rectangle_105" data-name="Rectangle 105" width="1.899" height="2.589" rx="0.335" transform="matrix(-0.997, 0.084, -0.084, -0.997, 24.263, 16.93)" fill="#c9985a"/>
        <path id="Rectangle_106" data-name="Rectangle 106" d="M.335,0h1.23A.335.335,0,0,1,1.9.335v1.92a.335.335,0,0,1-.335.335H.334A.334.334,0,0,1,0,2.255V.335A.335.335,0,0,1,.335,0Z" transform="translate(11.492 18.08) rotate(175.213)" fill="#c9985a"/>
        <rect id="Rectangle_107" data-name="Rectangle 107" width="1.899" height="2.589" rx="0.335" transform="translate(5.96 18.627) rotate(175.209)" fill="#c9985a"/>
        <path id="Path_241" data-name="Path 241" d="M8079.31,2762.777s1.984-1.432,4.674,1.69l2.177-.071s5.54.249,5.479-3.21a3.606,3.606,0,0,1,1.241-3.053,2.162,2.162,0,0,1,2.6-.04c1.751,1.238,5.4,3.728,6.562,3.843,5.666.563,15.718,2.876,15.718,2.876s5.056,1.074,5.148,6.263c-5.249,2.868-13.853,2.205-22.184,1.828l-1.854.157-3.639.307-1.854.157-3.349.283-4.386.414-2.605.31C8080.307,2771.359,8080.7,2766.854,8079.31,2762.777Z" transform="translate(-8079.31 -2757.68)" fill="#231f20"/>
        <path id="Path_242" data-name="Path 242" d="M8150.3,2783.172l-3.806,5.377-1.854.156,4.5-6.356Z" transform="translate(-8121.524 -2773.621)" fill="#055eff"/>
        <path id="Path_243" data-name="Path 243" d="M8135.349,2782.185l-4.381,6.191-1.854.156,5.072-7.17Z" transform="translate(-8111.493 -2772.983)" fill="#055eff"/>
        <path id="Path_244" data-name="Path 244" d="M8121.09,2781.566l-4.826,6.849-1.854.157,5.519-7.828Z" transform="translate(-8101.99 -2772.584)" fill="#055eff"/>
        <path id="Path_245" data-name="Path 245" d="M8164.8,2780.187a.561.561,0,1,0,.512-.606A.561.561,0,0,0,8164.8,2780.187Z" transform="translate(-8134.552 -2771.831)" fill="#c9985a"/>
        <path id="Path_246" data-name="Path 246" d="M8153.671,2778.843a.562.562,0,1,0,.513-.607A.562.562,0,0,0,8153.671,2778.843Z" transform="translate(-8127.358 -2770.962)" fill="#c9985a"/>
        <path id="Path_247" data-name="Path 247" d="M8142.144,2777.614a.562.562,0,1,0,.513-.606A.562.562,0,0,0,8142.144,2777.614Z" transform="translate(-8119.91 -2770.168)" fill="#c9985a"/>
        <path id="Path_248" data-name="Path 248" d="M8131.968,2775.944a.561.561,0,1,0,.512-.607A.56.56,0,0,0,8131.968,2775.944Z" transform="translate(-8113.334 -2769.088)" fill="#c9985a"/>
        <path id="Path_249" data-name="Path 249" d="M8144.41,2772.9a.355.355,0,0,0,.133-.039.345.345,0,0,0,.144-.467l-1.613-3.04a.345.345,0,0,0-.561-.07l-1.981,2.185-1.351-2.785a.344.344,0,0,0-.262-.19.355.355,0,0,0-.306.11l-2.062,2.284-.96-2.812a.347.347,0,0,0-.585-.119l-2.586,2.875a.345.345,0,0,0,.514.462l2.193-2.438.96,2.811a.343.343,0,0,0,.258.226.347.347,0,0,0,.326-.107l2.111-2.339,1.35,2.784a.345.345,0,0,0,.566.082l1.994-2.2,1.383,2.605A.345.345,0,0,0,8144.41,2772.9Z" transform="translate(-8113.571 -2764.247)" fill="#c9985a"/>
      </g>
    </g>
  </g>
</svg>
