<svg xmlns="http://www.w3.org/2000/svg" width="315.631" height="259.083" viewBox="0 0 315.631 259.083">
  <g id="info_3" transform="translate(-5692.616 -4453.047)">
    <g id="Group_47" data-name="Group 47" transform="translate(5692.616 4462.896)">
      <g id="Group_46" data-name="Group 46" transform="translate(0 0)">
        <path id="Path_344" data-name="Path 344" d="M6557.364,4594.385" transform="translate(-6382.983 -4575.732)" fill="#efe3d5"/>
        <g id="Group_44" data-name="Group 44" transform="translate(2.928 3.887)">
          <rect id="Rectangle_120" data-name="Rectangle 120" width="264.609" height="0.522" transform="translate(23.243 13.42)" fill="#efe3d5"/>
          <path id="Path_345" data-name="Path 345" d="M5875.494,4630.661c-27.164,0-45.674-.037-46.283-.037v-.522c2.035.014,203.953.41,260.043-1.519l.021.522C6049.97,4630.458,5939.065,4630.661,5875.494,4630.661Z" transform="translate(-5804.594 -4606.922)" fill="#efe3d5"/>
          <path id="Path_346" data-name="Path 346" d="M5875.494,4676.911c-27.164,0-45.674-.038-46.283-.038v-.522c2.035.01,203.953.411,260.043-1.518l.021.521C6049.97,4676.708,5939.065,4676.911,5875.494,4676.911Z" transform="translate(-5804.594 -4643.845)" fill="#efe3d5"/>
          <path id="Path_347" data-name="Path 347" d="M5875.494,4726.386c-27.164,0-45.674-.037-46.283-.037v-.522c2.035.01,203.953.413,260.043-1.519l.021.522C6049.97,4726.182,5939.065,4726.386,5875.494,4726.386Z" transform="translate(-5804.594 -4683.343)" fill="#efe3d5"/>
          <path id="Path_348" data-name="Path 348" d="M5875.494,4775.862c-27.164,0-45.674-.038-46.283-.038v-.521c2.035.014,203.953.41,260.043-1.519l.021.522C6049.97,4775.659,5939.065,4775.862,5875.494,4775.862Z" transform="translate(-5804.594 -4722.842)" fill="#efe3d5"/>
          <path id="Path_349" data-name="Path 349" d="M5884.374,4825.367c-26.693,0-44.883-.038-45.481-.038v-.522c2.011.014,200.9.41,256.139-1.5l.021.522C6056.313,4825.164,5946.972,4825.367,5884.374,4825.367Z" transform="translate(-5812.323 -4762.38)" fill="#efe3d5"/>
          <path id="Path_350" data-name="Path 350" d="M5902.348,4878.14c-25.88,0-43.517-.038-44.1-.038v-.522c1.94.011,194.768.393,248.33-1.451l.021.522C6069.047,4877.943,5963.038,4878.14,5902.348,4878.14Z" transform="translate(-5827.779 -4804.549)" fill="#efe3d5"/>
          <path id="Path_351" data-name="Path 351" d="M5902.348,4925.465c-25.88,0-43.517-.037-44.1-.037v-.522c1.94.01,194.768.39,248.33-1.451l.021.522C6069.047,4925.268,5963.038,4925.465,5902.348,4925.465Z" transform="translate(-5827.779 -4842.331)" fill="#efe3d5"/>
          <path id="Path_352" data-name="Path 352" d="M5902.348,4975.662c-25.88,0-43.517-.037-44.1-.037v-.522c1.94.01,194.768.39,248.33-1.451l.021.522C6069.047,4975.466,5963.038,4975.662,5902.348,4975.662Z" transform="translate(-5827.779 -4882.405)" fill="#efe3d5"/>
          <path id="Path_353" data-name="Path 353" d="M5902.348,5022.987c-25.88,0-43.517-.037-44.1-.037v-.522c1.94.007,194.768.39,248.33-1.45l.021.522C6069.047,5022.791,5963.038,5022.987,5902.348,5022.987Z" transform="translate(-5827.779 -4920.188)" fill="#efe3d5"/>
          <path id="Path_354" data-name="Path 354" d="M5902.348,5071.034c-25.88,0-43.517-.037-44.1-.037v-.522c1.94.01,194.768.39,248.33-1.45l.021.522C6069.047,5070.838,5963.038,5071.034,5902.348,5071.034Z" transform="translate(-5827.779 -4958.545)" fill="#efe3d5"/>
          <path id="Path_355" data-name="Path 355" d="M5935.847,5119.194c-24.391,0-41.019-.034-41.564-.034v-.521c1.834.013,183.373.373,233.8-1.366l.021.522C6092.749,5119.011,5992.994,5119.194,5935.847,5119.194Z" transform="translate(-5856.543 -4997.064)" fill="#efe3d5"/>
          <path id="Path_356" data-name="Path 356" d="M6055.224,5156.962c-68.883,0-151.131-.823-152.353-.833l.007-.521c1.808.02,181.636,1.816,232.06.077l.021.522C6118.549,5156.77,6088.436,5156.962,6055.224,5156.962Z" transform="translate(-5863.4 -5027.668)" fill="#efe3d5"/>
          <path id="Path_357" data-name="Path 357" d="M5837.861,4657.792l-12.893-114.742-13.259-11.1.335-.4,13.418,11.238.012.1,12.9,114.845Z" transform="translate(-5790.622 -4529.454)" fill="#efe3d5"/>
          <path id="Path_358" data-name="Path 358" d="M5891.254,4655.792l-11.918-114.858-12.293-11.645.359-.379,12.432,11.78.01.1,11.929,114.952Z" transform="translate(-5834.796 -4527.348)" fill="#efe3d5"/>
          <path id="Path_359" data-name="Path 359" d="M5947.755,4655.521l-10.185-114.973-10.895-11.756.383-.353,11.013,11.885.008.087,10.194,115.061Z" transform="translate(-5882.404 -4526.972)" fill="#efe3d5"/>
          <path id="Path_360" data-name="Path 360" d="M6002.212,4656.548l-9.645-114.658-8.954-11.434.41-.318,9.049,11.556.007.078,9.651,114.736Z" transform="translate(-5927.86 -4528.328)" fill="#efe3d5"/>
          <path id="Path_361" data-name="Path 361" d="M6046.32,4649.6l-8.562-114.874-10.577-13.237.407-.325,10.678,13.366.005.078,8.567,114.952Z" transform="translate(-5962.643 -4521.163)" fill="#efe3d5"/>
          <path id="Path_362" data-name="Path 362" d="M6100.508,4649.61l-7.044-114.872L6083.1,4521.5l.41-.319,10.46,13.363,0,.082,7.049,114.953Z" transform="translate(-6007.288 -4521.176)" fill="#efe3d5"/>
          <path id="Path_363" data-name="Path 363" d="M6152.123,4654.141l-5.419-114.864-10.5-12.078.393-.339,10.614,12.213,0,.088,5.422,114.953Z" transform="translate(-6049.684 -4525.711)" fill="#efe3d5"/>
          <path id="Path_364" data-name="Path 364" d="M6210.056,4654.083l-3.9-114.763-9.06-12.082.417-.312,9.159,12.21,0,.081,3.9,114.845Z" transform="translate(-6098.292 -4525.766)" fill="#efe3d5"/>
          <path id="Path_365" data-name="Path 365" d="M6269.089,4657.252l-3.792-115-6.619-11.367.45-.264,6.687,11.546,3.8,115.061Z" transform="translate(-6147.458 -4528.717)" fill="#efe3d5"/>
          <path id="Path_366" data-name="Path 366" d="M6323.915,4655.885l-3.252-115.549-5.4-11.881.475-.217,5.446,12.031,3.253,115.6Z" transform="translate(-6192.631 -4526.811)" fill="#efe3d5"/>
          <path id="Path_367" data-name="Path 367" d="M6382.99,4655.184l-2.168-115.6-3.244-12.081.5-.136,3.253,12.146,2.18,115.667Z" transform="translate(-6242.38 -4526.113)" fill="#efe3d5"/>
          <path id="Path_368" data-name="Path 368" d="M6441.451,4651.84l-.434-115.6-2.166-12.97.515-.088,2.169,13.014.438,115.647Z" transform="translate(-6291.298 -4522.772)" fill="#efe3d5"/>
          <path id="Path_369" data-name="Path 369" d="M7010.487,4654.625l-.515-.055,12.59-115.054.074-.068,13.735-12,.346.393-13.661,11.933Z" transform="translate(-6747.249 -4526.181)" fill="#efe3d5"/>
          <path id="Path_370" data-name="Path 370" d="M6963.7,4658.744l-.515-.054,11.831-115.16.071-.067,12.075-10.99.352.386-12,10.923Z" transform="translate(-6709.897 -4530.192)" fill="#efe3d5"/>
          <path id="Path_371" data-name="Path 371" d="M6920.131,4656.1l-.522-.047,9.987-115.376.074-.071,12.726-11.712.353.387L6930.1,4540.92Z" transform="translate(-6675.108 -4527.333)" fill="#efe3d5"/>
          <path id="Path_372" data-name="Path 372" d="M6874.15,4659.036l-.522-.041,9.716-115.431.068-.068,11.132-10.99.366.373-11.065,10.923Z" transform="translate(-6638.399 -4530.219)" fill="#efe3d5"/>
          <path id="Path_373" data-name="Path 373" d="M6827.9,4655.294l-.521-.041,8.628-115.641.064-.064,11.132-12,.379.352-11.068,11.936Z" transform="translate(-6601.477 -4526.261)" fill="#efe3d5"/>
          <path id="Path_374" data-name="Path 374" d="M6780.694,4658.942l-.521-.034,7.086-115.792.051-.065,8.893-11.132.406.325-8.842,11.068Z" transform="translate(-6563.79 -4529.75)" fill="#efe3d5"/>
          <path id="Path_375" data-name="Path 375" d="M6735.538,4654.177l-.522-.027,5.345-115.871.051-.064,9.326-12.363.414.312-9.275,12.3Z" transform="translate(-6527.738 -4524.906)" fill="#efe3d5"/>
          <path id="Path_376" data-name="Path 376" d="M6688.885,4659.8l-.521-.021,3.907-116.332.048-.064,8.024-11.061.42.305-7.977,11Z" transform="translate(-6490.494 -4530.072)" fill="#efe3d5"/>
          <path id="Path_377" data-name="Path 377" d="M6639.41,4656.458l-.521-.02,3.938-116.373,6.723-11.929.454.257-6.693,11.872Z" transform="translate(-6450.996 -4526.731)" fill="#efe3d5"/>
          <path id="Path_378" data-name="Path 378" d="M6592.085,4655.913l-.521-.014,3.274-115.7,4.989-11.929.481.2-4.972,11.882Z" transform="translate(-6413.214 -4526.838)" fill="#efe3d5"/>
          <path id="Path_379" data-name="Path 379" d="M6545.836,4655.184l-.521-.007,2.168-115.6,3.264-12.21.5.136L6548,4539.646Z" transform="translate(-6376.292 -4526.113)" fill="#efe3d5"/>
          <path id="Path_380" data-name="Path 380" d="M6498.512,4658.723h-.522l.434-115.6,1.738-11.319.516.081-1.736,11.278Z" transform="translate(-6338.511 -4529.655)" fill="#efe3d5"/>
          <path id="Path_381" data-name="Path 381" d="M7188.3,4684.82l-.522-.013,3.183-135.628.521.014Z" transform="translate(-6889.196 -4543.529)" fill="#efe3d5"/>
          <path id="Path_382" data-name="Path 382" d="M7150.3,4687.775l-.522-.021,5.639-129.267.521.021Z" transform="translate(-6858.862 -4550.961)" fill="#efe3d5"/>
          <path id="Path_383" data-name="Path 383" d="M7118.755,4724.789l-.522-.027,5.639-115.387.522.027Z" transform="translate(-6833.679 -4591.587)" fill="#efe3d5"/>
          <path id="Path_384" data-name="Path 384" d="M7103.413,5172.826l-30.419-17.135.258-.454,30.419,17.135Z" transform="translate(-6797.561 -5027.373)" fill="#efe3d5"/>
          <path id="Path_385" data-name="Path 385" d="M7111.9,5136.459l-30.22-14.315.224-.468,30.219,14.315Z" transform="translate(-6804.497 -5000.58)" fill="#efe3d5"/>
          <rect id="Rectangle_121" data-name="Rectangle 121" width="0.517" height="31.87" transform="translate(277.78 112.753) rotate(-68.438)" fill="#efe3d5"/>
          <path id="Path_386" data-name="Path 386" d="M7119.323,5037.434l-27.474-9.256.169-.494,27.474,9.255Z" transform="translate(-6812.615 -4925.542)" fill="#efe3d5"/>
          <path id="Path_387" data-name="Path 387" d="M7122.069,4987.521l-25.884-8.1.155-.5,25.885,8.1Z" transform="translate(-6816.077 -4886.619)" fill="#efe3d5"/>
          <path id="Path_388" data-name="Path 388" d="M7128.441,4936.3l-25.013-6.361.128-.5,25.014,6.361Z" transform="translate(-6821.859 -4847.107)" fill="#efe3d5"/>
          <path id="Path_389" data-name="Path 389" d="M7133.261,4885.779l-25.447-4.63.095-.515,25.447,4.629Z" transform="translate(-6825.36 -4808.145)" fill="#efe3d5"/>
          <path id="Path_390" data-name="Path 390" d="M7137.487,4829.41l-23.858-2.745.062-.515,23.857,2.745Z" transform="translate(-6830.002 -4764.648)" fill="#efe3d5"/>
          <path id="Path_391" data-name="Path 391" d="M7147.041,4778.753l-21.11-.867.021-.522,21.109.868Z" transform="translate(-6839.824 -4725.7)" fill="#efe3d5"/>
          <path id="Path_392" data-name="Path 392" d="M7127.3,4722.146l-.074-.515,20.1-3.037.074.515Z" transform="translate(-6840.857 -4678.782)" fill="#efe3d5"/>
          <path id="Path_393" data-name="Path 393" d="M7137.2,4659.525l-.163-.495,19.232-6.364.163.495Z" transform="translate(-6848.692 -4626.148)" fill="#efe3d5"/>
          <path id="Path_394" data-name="Path 394" d="M7137.844,4596.918l-.217-.474,20.967-9.689.217.475Z" transform="translate(-6849.162 -4573.528)" fill="#efe3d5"/>
          <path id="Path_395" data-name="Path 395" d="M7092.22,4966.634l-.522-.021,2.169-51.041.522.021Z" transform="translate(-6812.494 -4836.037)" fill="#efe3d5"/>
          <g id="Group_43" data-name="Group 43" transform="translate(0 5.649)">
            <path id="Path_396" data-name="Path 396" d="M5746.846,4684.169l-3.182-134.978.521-.014,3.182,134.978Z" transform="translate(-5736.298 -4549.178)" fill="#efe3d5"/>
            <path id="Path_397" data-name="Path 397" d="M5775.124,4687.775l-5.639-129.267.519-.021,5.639,129.267Z" transform="translate(-5756.912 -4556.611)" fill="#efe3d5"/>
            <path id="Path_398" data-name="Path 398" d="M5806.677,4724.789l-5.639-115.386.519-.027,5.639,115.387Z" transform="translate(-5782.102 -4597.236)" fill="#efe3d5"/>
            <path id="Path_399" data-name="Path 399" d="M5725.954,5175.133l-.247-.461,28.917-15.687.248.461Z" transform="translate(-5721.961 -5036.014)" fill="#efe3d5"/>
            <path id="Path_400" data-name="Path 400" d="M5717.384,5136.459l-.224-.467,30.22-14.315.224.468Z" transform="translate(-5715.138 -5006.229)" fill="#efe3d5"/>
            <rect id="Rectangle_122" data-name="Rectangle 122" width="31.871" height="0.517" transform="matrix(0.93, -0.367, 0.367, 0.93, 2.036, 118.329)" fill="#efe3d5"/>
            <path id="Path_401" data-name="Path 401" d="M5721.049,5037.434l-.166-.5,27.474-9.255.166.494Z" transform="translate(-5718.11 -4931.19)" fill="#efe3d5"/>
            <path id="Path_402" data-name="Path 402" d="M5724.652,4987.521l-.156-.5,25.883-8.1.156.5Z" transform="translate(-5720.996 -4892.268)" fill="#efe3d5"/>
            <path id="Path_403" data-name="Path 403" d="M5721.827,4936.3l-.129-.5,25.014-6.361.129.5Z" transform="translate(-5718.762 -4852.756)" fill="#efe3d5"/>
            <path id="Path_404" data-name="Path 404" d="M5715.429,4885.779l-.091-.515,25.447-4.629.091.515Z" transform="translate(-5713.684 -4813.794)" fill="#efe3d5"/>
            <path id="Path_405" data-name="Path 405" d="M5717.625,4829.41l-.061-.515,23.858-2.745.061.515Z" transform="translate(-5715.461 -4770.297)" fill="#efe3d5"/>
            <path id="Path_406" data-name="Path 406" d="M5719.113,4778.753l-.021-.521,21.111-.868.021.522Z" transform="translate(-5716.681 -4731.349)" fill="#efe3d5"/>
            <rect id="Rectangle_123" data-name="Rectangle 123" width="0.521" height="20.326" transform="matrix(0.149, -0.989, 0.989, 0.149, 3.106, 34.679)" fill="#efe3d5"/>
            <path id="Path_407" data-name="Path 407" d="M5735.821,4659.525l-19.232-6.364.163-.495,19.232,6.364Z" transform="translate(-5714.683 -4631.797)" fill="#efe3d5"/>
            <path id="Path_408" data-name="Path 408" d="M5728.1,4596.918l-20.966-9.688.217-.475,20.965,9.689Z" transform="translate(-5707.136 -4579.178)" fill="#efe3d5"/>
            <path id="Path_409" data-name="Path 409" d="M5846.943,4966.634l-2.168-51.041.519-.021,2.168,51.041Z" transform="translate(-5817.02 -4841.687)" fill="#efe3d5"/>
          </g>
        </g>
        <g id="Group_45" data-name="Group 45">
          <path id="Path_410" data-name="Path 410" d="M6008.248,4651.542h-6.94v-141.63a1.088,1.088,0,0,0-1.085-1.084H5700.641a1.087,1.087,0,0,0-1.084,1.084v140.763h-6.94V4509.912a8.034,8.034,0,0,1,8.025-8.025h299.581a8.033,8.033,0,0,1,8.025,8.025Z" transform="translate(-5692.616 -4501.887)" fill="#efe3d5"/>
          <path id="Path_411" data-name="Path 411" d="M5742.522,4641.625l-14.17-110.9c-.06-.329-1.984-10.492-18.358-13.813l1.379-6.805c21.375,4.341,23.763,19.053,23.854,19.676l14.178,110.964Z" transform="translate(-5706.49 -4508.447)" fill="#efe3d5"/>
          <path id="Path_412" data-name="Path 412" d="M7051.966,4641.625l-6.886-.881,14.172-110.9c.1-.684,2.484-15.4,23.862-19.737l1.382,6.805c-16.65,3.378-18.351,13.769-18.368,13.874Z" transform="translate(-6772.349 -4508.447)" fill="#efe3d5"/>
        </g>
      </g>
      <rect id="Rectangle_124" data-name="Rectangle 124" width="242.494" height="2.987" transform="translate(37.123 130.191)" fill="#efe3d5"/>
      <path id="Path_413" data-name="Path 413" d="M5726.466,5166.1l-.144-4.247,30.326-14.35v2.987Z" transform="translate(-5719.525 -5017.31)" fill="#efe3d5"/>
      <path id="Path_414" data-name="Path 414" d="M7105.982,5166.965l.143-4.246-29.8-15.218v2.987Z" transform="translate(-6797.291 -5017.31)" fill="#efe3d5"/>
    </g>
    <g id="Group_48" data-name="Group 48" transform="translate(5877.812 4460.961)">
      <circle id="Ellipse_21" data-name="Ellipse 21" cx="11.662" cy="11.662" r="11.662" transform="translate(0 0)" fill="#011d33"/>
      <path id="Path_415" data-name="Path 415" d="M6631.987,4499.24a12.126,12.126,0,0,0-4.112,3.081l.837,4.418,2.889,1.143,4.345-3.136-.028-3.276Z" transform="translate(-6624.471 -4497.839)" fill="#e9d4ad"/>
      <path id="Path_416" data-name="Path 416" d="M6653.773,4578.255a12.815,12.815,0,0,1-5.137-.071l-2.03-3.948,1.792-2.37,5.484-.014,1.84,2.321Z" transform="translate(-6639.424 -4555.809)" fill="#e9d4ad"/>
      <path id="Path_417" data-name="Path 417" d="M6692.98,4542.72a12.829,12.829,0,0,1-1.655,4.864l-4.246.639-1.842-2.349,1.641-5.1,2.983-1.031Z" transform="translate(-6670.266 -4530.173)" fill="#e9d4ad"/>
      <path id="Path_418" data-name="Path 418" d="M6614.673,4542.462a13.144,13.144,0,0,0,1.6,4.952l4.345.627,1.875-2.314-1.666-5.147-2.854-1.077Z" transform="translate(-6613.93 -4529.983)" fill="#e9d4ad"/>
      <path id="Path_419" data-name="Path 419" d="M6674.551,4499.24a12.129,12.129,0,0,1,4.112,3.081l-.849,4.485-2.9,1.061-4.321-3.121.028-3.276Z" transform="translate(-6658.573 -4497.839)" fill="#e9d4ad"/>
    </g>
    <g id="Group_59" data-name="Group 59" transform="translate(5796.744 4453.047)">
      <g id="Group_58" data-name="Group 58" transform="translate(0 0)">
        <g id="Group_49" data-name="Group 49" transform="translate(82.28 168.309)">
          <path id="Path_420" data-name="Path 420" d="M6618.761,5322.058l.035-.353C6614.779,5321.1,6618.761,5322.058,6618.761,5322.058Z" transform="translate(-6617.001 -5314.684)" fill="#863e32"/>
          <path id="Path_421" data-name="Path 421" d="M6865.1,5310.351a7.125,7.125,0,0,0,6.488-3.122,3.819,3.819,0,0,0-.314-4.991c-2.614-2.96-7.059-3.075-7.059-3.075l-1.847-.078-.419,11.541A7.6,7.6,0,0,1,6865.1,5310.351Z" transform="translate(-6812.557 -5296.785)" fill="#be7550"/>
          <path id="Path_422" data-name="Path 422" d="M6629.718,5295.337c19.312,3.367,21.2,8.545,28.759,9.549a21.908,21.908,0,0,0,8.631-.958l.221-14.226-32.753-1.384-7.968-.636-.709,7.021C6626.764,5294.835,6627.992,5295.036,6629.718,5295.337Z" transform="translate(-6624.105 -5287.683)" fill="#002140"/>
          <path id="Path_423" data-name="Path 423" d="M6836.647,5309.522l.418-11.54-6.59-.279-.221,14.226A45.564,45.564,0,0,0,6836.647,5309.522Z" transform="translate(-6787.251 -5295.683)" fill="#002140"/>
        </g>
        <g id="Group_52" data-name="Group 52" transform="translate(75.101 143.445)">
          <path id="Path_424" data-name="Path 424" d="M6581.5,5182.36c1.12,23.324,23.86,40.438,23.86,40.438l2.365,4.378s2.376,4.236,5.335,6.219c2.366,1.585,7.18-6.077,8.529-10.239.337-1.042-2.77-5.238-2.77-5.238s-8.875-34.958-14.278-40.627C6599.093,5171.577,6579.88,5148.689,6581.5,5182.36Z" transform="translate(-6581.401 -5164.383)" fill="#be7550"/>
          <g id="Group_50" data-name="Group 50" transform="translate(27.533 56.644)">
            <path id="Path_425" data-name="Path 425" d="M6726.91,5445.277s-9.661.184-8.935,6.152a9.389,9.389,0,0,0,5.56,7.217,5.831,5.831,0,0,0,2.411.557h0l7.626-12.645A61.548,61.548,0,0,0,6726.91,5445.277Z" transform="translate(-6717.936 -5445.277)" fill="#be7550"/>
            <path id="Path_426" data-name="Path 426" d="M6757.656,5464.276l.285.19c2,3.322,10.132,10.271,13.53,12.135l31.253,17.147,1.23,2.088,3.113-7.866-3.125-1.108c-2.656-.947-5.777-5.035-8.991-8.279-10.506-10.6-11.981-17.287-17.417-21.667-1.609-1.3-10.12-4.419-12.252-5.284Z" transform="translate(-6749.646 -5450.351)" fill="#002140"/>
          </g>
          <path id="Path_427" data-name="Path 427" d="M6732.647,5442.456s5.63,2.453,6.683,6.647-.039.881-.039.881S6738.047,5446.134,6732.647,5442.456Z" transform="translate(-6702.147 -5386.38)" fill="#a45e48"/>
          <path id="Path_428" data-name="Path 428" d="M6814.179,5474.284s-13.037-3.822-18.219-15.408C6795.96,5458.875,6800.637,5473.389,6814.179,5474.284Z" transform="translate(-6752.693 -5399.489)" fill="#011d33"/>
          <g id="Group_51" data-name="Group 51" transform="translate(78.8 92.191)">
            <path id="Path_429" data-name="Path 429" d="M7018.186,5730.907v.3a.326.326,0,0,1-.36.352l-.623-.089a.456.456,0,0,1-.358-.455v-.3a.326.326,0,0,1,.36-.352l.624.089A.456.456,0,0,1,7018.186,5730.907Z" transform="translate(-7007.834 -5708.419)" fill="#cc9b5a"/>
            <path id="Path_430" data-name="Path 430" d="M7018.238,5714.54v.3a.325.325,0,0,1-.36.352l-.623-.089a.456.456,0,0,1-.357-.455v-.3a.327.327,0,0,1,.36-.352l.624.089A.456.456,0,0,1,7018.238,5714.54Z" transform="translate(-7007.877 -5695.352)" fill="#cc9b5a"/>
            <path id="Path_431" data-name="Path 431" d="M7018.261,5694.536v.3a.326.326,0,0,1-.36.352l-.623-.089a.457.457,0,0,1-.358-.455v-.3a.326.326,0,0,1,.36-.352l.624.089A.456.456,0,0,1,7018.261,5694.536Z" transform="translate(-7007.894 -5679.382)" fill="#cc9b5a"/>
            <path id="Path_432" data-name="Path 432" d="M7018.314,5678.4v.3a.326.326,0,0,1-.36.352l-.623-.089a.457.457,0,0,1-.358-.455v-.3a.326.326,0,0,1,.36-.352l.624.089A.458.458,0,0,1,7018.314,5678.4Z" transform="translate(-7007.937 -5666.498)" fill="#cc9b5a"/>
            <path id="Path_433" data-name="Path 433" d="M7018.465,5645.871v.3a.326.326,0,0,1-.36.352l-.623-.089a.456.456,0,0,1-.357-.455v-.3a.326.326,0,0,1,.36-.353l.623.089A.457.457,0,0,1,7018.465,5645.871Z" transform="translate(-7008.058 -5640.53)" fill="#cc9b5a"/>
            <path id="Path_434" data-name="Path 434" d="M7018.737,5632.7v.3a.326.326,0,0,1-.36.352l-.623-.089a.456.456,0,0,1-.358-.455v-.3a.326.326,0,0,1,.36-.352l.624.089A.456.456,0,0,1,7018.737,5632.7Z" transform="translate(-7008.275 -5630.015)" fill="#cc9b5a"/>
            <path id="Path_435" data-name="Path 435" d="M6974.747,5621.556s-.362,1.155,1.362,2.81l-.055,2.452s-.241.7-2.029.581-1.858,3.176-1.858,3.176,2.942.667,3.39,2.474c.816,3.294,2.117,8.886,2.117,8.886s1.145,2.886,3.827,3.069l.042-12.561,0-1.084.007-2.126,0-1.084.006-1.958,0-1.083.052-1.521Z" transform="translate(-6972.167 -5621.556)" fill="#393e59"/>
            <path id="Path_436" data-name="Path 436" d="M7001.906,5683.768l3-2.205,0-1.084-3.473,2.587Z" transform="translate(-6995.531 -5668.597)" fill="#191c2c"/>
            <path id="Path_437" data-name="Path 437" d="M6999.993,5668.162l3.394-2.521,0-1.084-3.87,2.9Z" transform="translate(-6994.004 -5655.885)" fill="#191c2c"/>
            <path id="Path_438" data-name="Path 438" d="M6998.45,5653.327l3.714-2.767,0-1.083-4.191,3.148Z" transform="translate(-6992.772 -5643.847)" fill="#191c2c"/>
            <path id="Path_439" data-name="Path 439" d="M6999.871,5700.919a.368.368,0,0,1,.29.368.263.263,0,0,1-.292.285.369.369,0,0,1-.29-.369A.263.263,0,0,1,6999.871,5700.919Z" transform="translate(-6994.052 -5684.914)" fill="#cc9b5a"/>
            <path id="Path_440" data-name="Path 440" d="M6997.838,5689.405a.369.369,0,0,1,.29.369.263.263,0,0,1-.292.285.368.368,0,0,1-.29-.368A.263.263,0,0,1,6997.838,5689.405Z" transform="translate(-6992.429 -5675.721)" fill="#cc9b5a"/>
            <path id="Path_441" data-name="Path 441" d="M6995.881,5677.488a.369.369,0,0,1,.29.368.264.264,0,0,1-.292.286.369.369,0,0,1-.29-.369A.263.263,0,0,1,6995.881,5677.488Z" transform="translate(-6990.867 -5666.207)" fill="#cc9b5a"/>
            <path id="Path_442" data-name="Path 442" d="M6993.625,5666.941a.367.367,0,0,1,.29.368.263.263,0,0,1-.292.285.368.368,0,0,1-.29-.368A.263.263,0,0,1,6993.625,5666.941Z" transform="translate(-6989.066 -5657.787)" fill="#cc9b5a"/>
            <path id="Path_443" data-name="Path 443" d="M6990.057,5674.447a.2.2,0,0,1-.015.077.155.155,0,0,1-.235.072l-1.636-1.022a.241.241,0,0,1-.1-.158.2.2,0,0,1,.045-.172l1.045-1.107-1.494-.862a.234.234,0,0,1-.109-.158.2.2,0,0,1,.044-.176l1.093-1.153-1.492-.633a.228.228,0,0,1-.127-.157.2.2,0,0,1,.042-.188l1.376-1.445a.166.166,0,0,1,.252.027.22.22,0,0,1,.007.285l-1.167,1.226,1.491.633a.231.231,0,0,1,.128.157.2.2,0,0,1-.042.188l-1.119,1.181,1.494.86a.238.238,0,0,1,.109.159.2.2,0,0,1-.044.176l-1.052,1.115,1.4.876A.239.239,0,0,1,6990.057,5674.447Z" transform="translate(-6984.06 -5658.089)" fill="#cc9b5a"/>
          </g>
        </g>
        <path id="Path_444" data-name="Path 444" d="M6673.551,5103.495c28.072,20.813,31.768,35.5,32.824,39.87l-1.078.882s-.122-3.68.353-1.833c.7,2.717-.818,11.722-12.054,5.982-.975-.5-3.808-2.062-3.808-2.062s-29.654-18.965-33.194-25.95C6653.026,5113.342,6649.9,5085.958,6673.551,5103.495Z" transform="translate(-6564.37 -4967.724)" fill="#be7550"/>
        <path id="Path_445" data-name="Path 445" d="M6545.127,5092.016s3.379,28.418,15.464,50.646l24.834-11.564-11.754-24.645s-9.423-15.09-14.352-23.243Z" transform="translate(-6477.342 -4956.135)" fill="#e9d4ad"/>
        <path id="Path_446" data-name="Path 446" d="M6611.867,5053.7s2.407,1,17.7,12.508a155.2,155.2,0,0,1,23.331,21.286l-17.1,16.416-12.062-8.125s-15.591-24.558-23.262-33.859Z" transform="translate(-6521.521 -4932.576)" fill="#e9d4ad"/>
        <path id="Path_447" data-name="Path 447" d="M6341.568,4998.392s2.917,31.272,6.392,34,9.481,7.978,9.481,7.978a191.946,191.946,0,0,0,4.3-40.3S6356.463,4985.7,6341.568,4998.392Z" transform="translate(-6314.831 -4884.241)" fill="#393e59"/>
        <path id="Path_448" data-name="Path 448" d="M6360.243,5065.258s1.74,21.5-3.146,27.235c-2.69,3.155-4.146,8.875-6.825,3.135-2.188-4.689-5.9-20.816-5.9-20.816Z" transform="translate(-6317.068 -4941.803)" fill="#191c2c"/>
        <path id="Path_449" data-name="Path 449" d="M6353.833,4980.139s2.492-15.744,1.084-19.827c-2.168-6.286-7.533-9.337-12.259-15.062-2.009-2.433-8.707,1.441-9.725,13.562-.622,7.4,2.7,21.327,2.7,21.327Z" transform="translate(-6307.875 -4845.444)" fill="#393e59"/>
        <path id="Path_450" data-name="Path 450" d="M6352.861,4818.047s-9.979,12.091-11.208,18.032c-.284,1.374,15.209,10.645,21.217,13.9,1.247.676,18.273,23.029,18.273,23.029,11.886-7.6,21.66-14.817,28.092-21.421l-8.818-15.125-2.257-5.866c-.443-5.325-3.64-18.434-6.175-23.141-3.063-5.687-16.042-3.488-21.469-7.109l-.9,1.517-3.343,5.147Z" transform="translate(-6314.895 -4730.31)" fill="#393e59"/>
        <path id="Path_451" data-name="Path 451" d="M6462.356,4605.893s-11.924-33.864-10.174-37.374c2.144-4.3,5.259-10.518,5.259-10.518s5.593,6.176,17.8,28.462C6475.24,4586.463,6483.156,4610.346,6462.356,4605.893Z" transform="translate(-6403 -4536.836)" fill="#191c2c"/>
        <g id="Group_53" data-name="Group 53" transform="translate(11.65 7.408)">
          <path id="Path_452" data-name="Path 452" d="M6306.684,4516.27l-36.866-22.38-3.065-4.1s33.536,4.321,42.882,13.867c0,0,2.328,6.545.424,10.844C6309.561,4515.619,6307.792,4516.8,6306.684,4516.27Z" transform="translate(-6266.753 -4489.785)" fill="#191c2c"/>
        </g>
        <g id="Group_54" data-name="Group 54" transform="translate(34.35 148.157)">
          <path id="Path_453" data-name="Path 453" d="M6388.892,5188.762l10.875,32.165-.289,4.7s-19.273-17.508-20.159-29.767c0,0,2.257-5.979,6.15-7.863C6386.486,5187.507,6388.428,5187.731,6388.892,5188.762Z" transform="translate(-6379.319 -5187.75)" fill="#191c2c"/>
        </g>
        <path id="Path_454" data-name="Path 454" d="M6499.223,4718.405s6.3,17.756,4.164,26.05c-.854,3.322-21.056-6.21-21.9-9.526a30.712,30.712,0,0,1-.278-12.921Z" transform="translate(-6425.872 -4664.894)" fill="#393e59"/>
        <path id="Path_455" data-name="Path 455" d="M6408.4,4816.723l-3.573,15.029-10.547-2.878-1.022.978,13.192,4.316,3.514-19.956Z" transform="translate(-6356.096 -4741.38)" fill="#e9d4ad"/>
        <g id="Group_57" data-name="Group 57" transform="translate(22.825 57.283)">
          <path id="Path_456" data-name="Path 456" d="M6376.787,4797.266l5.288,12.164,8.413,2.082,3.837-11.951s-2.478,1.041-11.57-8.546C6382.754,4791.014,6384.352,4792.668,6376.787,4797.266Z" transform="translate(-6365.772 -4780.144)" fill="#be7550"/>
          <g id="Group_56" data-name="Group 56">
            <g id="Group_55" data-name="Group 55">
              <path id="Path_457" data-name="Path 457" d="M6324.086,4742.1c.3-.457,4.947-9.283,14.744-2.337,0,0,2.452.493,4.3.737,1.526.2.03,3.15.03,3.15l1.819,1.057-1.025,1.938,1.32-1.384,2.285,1.262a1.118,1.118,0,0,1,.3,1.554l-2.267,6.834c-1.661,2.453-4.261,1.049-7.128,1.794-.9.235-1.853.005-2.688.236C6329.877,4758.573,6317.405,4752.184,6324.086,4742.1Z" transform="translate(-6322.17 -4737.112)" fill="#be7550"/>
              <path id="Path_458" data-name="Path 458" d="M6390.424,4752.748s-1.634,1.96-1.337,3.826,1.716-2.582,2.578-3.22S6390.424,4752.748,6390.424,4752.748Z" transform="translate(-6375.564 -4749.594)" fill="#7c3603"/>
              <path id="Path_459" data-name="Path 459" d="M6396.946,4762.643s1.842.428,1.5-1.369c-.165-.858-.192-.727-.192-.727Z" transform="translate(-6381.867 -4755.815)" fill="#320a03"/>
            </g>
          </g>
        </g>
        <path id="Path_460" data-name="Path 460" d="M6231.272,4462.071l-2.331,6.38-2.018-.765s-2.834.694-6.2,1.222-4.357-.571-4.357-.571-2.127-.777-1.356-1.8,4.22-.216,5.6-.733-6.7-2.475-8.681-1.47-3.7-1.6-1.08-2.323a21.5,21.5,0,0,1,6.282-.385s-4.556-1.31-6.954-.57-1.987-4.186,8.872-1.381c0,0-4.236-1.981-7.553-1.514a.959.959,0,0,1-1.127-.986c.089-.867,2.2-1.69,8.707-.369,1.135.231.425.156.425.156s-4.854-2.667-6.274-2.817c0,0-.888-1.53,2.257-.977a13.988,13.988,0,0,1,7.337,3.206c1.707,1.616,4.166,2.431,4.54,4.069.068.3,1.49.76,1.49.76C6229.412,4460.047,6231.665,4461.739,6231.272,4462.071Z" transform="translate(-6208.98 -4453.047)" fill="#002140"/>
        <path id="Path_461" data-name="Path 461" d="M6445.889,5333.672l6.143-2.9.9,1.963s2.5,1.5,5.272,3.492,2.7,3.469,2.7,3.469.967,2.047-.3,2.233-3.154-2.812-4.5-3.415,3.023,6.467,5.141,7.147,1.5,3.74-.865,2.412a21.491,21.491,0,0,1-4.738-4.141s2.319,4.134,4.545,5.292-1.529,4.374-7.281-5.253c0,0,1.62,4.386,4.308,6.386a.96.96,0,0,1,.108,1.494c-.673.554-2.751-.342-6.452-5.858-.646-.961-.194-.409-.194-.409s2.7,4.552,3.6,5.657c0,0-.823,1.711-2.67-.893s-3.043-4.425-3.705-6.681a20.285,20.285,0,0,1-.369-6.085C6447.526,5337.268,6445.889,5333.672,6445.889,5333.672Z" transform="translate(-6398.115 -5153.775)" fill="#002140"/>
      </g>
      <path id="Path_462" data-name="Path 462" d="M6703.765,5233.6l-3.649-6.825.379-1.375s10.934,10.839,14.851,15.585Z" transform="translate(-6601.076 -5069.649)" fill="#d3bf97"/>
      <path id="Path_463" data-name="Path 463" d="M6449.011,5329.677a1.309,1.309,0,0,0-.64-1.635c-1.066-.64-6.9,3.057-6.9,3.057s.213,1.919,1.991.853A35.923,35.923,0,0,1,6449.011,5329.677Z" transform="translate(-6394.591 -5151.536)" fill="#002140"/>
      <path id="Path_464" data-name="Path 464" d="M6297.494,4499.971a1.308,1.308,0,0,0,1.608.7c1.207-.3,2.721-7.035,2.721-7.035s-1.506-1.208-2.011.8A35.984,35.984,0,0,1,6297.494,4499.971Z" transform="translate(-6279.645 -4485.167)" fill="#002140"/>
      <path id="Path_465" data-name="Path 465" d="M6331.8,4745.826a1.823,1.823,0,0,1-.463,1.248c-1.012-1.1-.736-.629-1.877-1.416,1.781,1.9.051,1.331-.976.689-1.9-1.185-3.084-.665-3.7-.9-5.087-.063-9.685-6.915-7.414-13.567.4-1.185.62-1.841.62-1.841a13.27,13.27,0,0,1,3.043-4.187c.846-.857,2.226-2.544.912-4.766-.55-.93,2.812-.282,2.9,2.209a6.835,6.835,0,0,0-.108-2.54s5.232,1.475,1.2,7.588a8.312,8.312,0,0,1-2.077,2.355c1.468,1.951,5.474,3.982,6.769,4.868,2.034,1.39.553,1.337.553,1.337s-5.507.75-2.139,3.768C6330.51,4741.993,6332.3,4746.427,6331.8,4745.826Z" transform="translate(-6295.034 -4666.712)" fill="#662b02"/>
    </g>
  </g>
</svg>
